<svg width="21" height="21" viewBox="0 0 21 21" fill="none" xmlns="http://www.w3.org/2000/svg">
<g clip-path="url(#clip0_8341_8591)">
<path d="M5.55 9.4C5.93889 10.0889 6.41389 10.7139 6.975 11.275C7.53611 11.8361 8.16111 12.3111 8.85 12.7L9.58333 11.6667C9.70556 11.4889 9.86944 11.3778 10.075 11.3333C10.2806 11.2889 10.4778 11.3167 10.6667 11.4167C11.8556 12.0722 13.1278 12.45 14.4833 12.55C14.6944 12.5722 14.875 12.6611 15.025 12.8167C15.175 12.9722 15.25 13.1611 15.25 13.3833V17.1C15.25 17.3111 15.1778 17.4972 15.0333 17.6583C14.8889 17.8194 14.7111 17.9111 14.5 17.9333C14.0556 17.9778 13.6111 18 13.1667 18C11.4111 18 9.73333 17.6611 8.13333 16.9833C6.58889 16.3278 5.22222 15.4056 4.03333 14.2167C2.84444 13.0278 1.92222 11.6611 1.26667 10.1167C0.588889 8.51667 0.25 6.83889 0.25 5.08333C0.25 4.63889 0.272222 4.19444 0.316667 3.75C0.338889 3.53889 0.430556 3.36111 0.591667 3.21667C0.752778 3.07222 0.938889 3 1.15 3H4.86667C5.08889 3 5.27778 3.075 5.43333 3.225C5.58889 3.375 5.67778 3.55555 5.7 3.76667C5.8 5.12222 6.17778 6.39444 6.83333 7.58333C6.93333 7.77222 6.96111 7.96944 6.91667 8.175C6.87222 8.38056 6.76111 8.54444 6.58333 8.66667L5.55 9.4ZM3.45 8.85L5.03333 7.71667C4.58889 6.75 4.28333 5.73333 4.11667 4.66667H1.91667V5.08333C1.91667 6.60555 2.21111 8.06667 2.8 9.46667C3.36667 10.8111 4.16944 12.0028 5.20833 13.0417C6.24722 14.0806 7.43889 14.8833 8.78333 15.45C10.1833 16.0389 11.6444 16.3333 13.1667 16.3333H13.5833V14.1333C12.5167 13.9667 11.5 13.6611 10.5333 13.2167L9.4 14.8C8.94444 14.6222 8.5 14.4111 8.06667 14.1667L8.01667 14.15C7.20556 13.6833 6.46667 13.1167 5.8 12.45C5.13333 11.7833 4.56667 11.0444 4.1 10.2333L4.08333 10.1833C3.83889 9.75 3.62778 9.30556 3.45 8.85Z" fill="#212529"/>
</g>
<defs>
<clipPath id="clip0_8341_8591">
<rect width="20.48" height="20" fill="white" transform="matrix(1 0 0 -1 0.25 20.5)"/>
</clipPath>
</defs>
</svg>
