<svg width="52" height="54" viewBox="0 0 52 54" fill="none" xmlns="http://www.w3.org/2000/svg">
<path d="M26.7238 2.15683C26.7238 2.15683 26.106 2.79825 26.2694 4.01173C26.4329 5.22521 27.0973 6.9076 27.0075 8.07305C26.9176 9.2385 25.8439 12.1049 25.8439 12.1049L27.1794 14.0654L28.9937 12.6585C28.9937 12.6585 30.1327 8.96293 29.988 7.49063C29.8433 6.01833 29.7198 2.49563 29.7198 2.49563L26.7238 2.15683Z" fill="#433709"/>
<path d="M27.9039 2.29499C27.9308 2.99978 28.266 5.91022 28.3926 7.19526C28.5373 8.66756 27.3983 12.3631 27.3983 12.3631L26.1993 13.0523L26.8688 14.0351L28.6831 12.6282C28.6831 12.6282 29.8221 8.93264 29.6774 7.46034C29.5328 5.98804 29.4092 2.46534 29.4092 2.46534L27.9056 2.29532L27.9039 2.29499Z" fill="#261C02"/>
<path d="M29.7267 2.56915C29.6896 2.953 28.9709 3.19954 28.1226 3.11721C27.2733 3.03557 26.6161 2.65659 26.6525 2.27171C26.6896 1.88786 27.4083 1.64131 28.2566 1.72365C29.1059 1.80528 29.7631 2.18427 29.7267 2.56915Z" fill="#FCD3B3"/>
<path d="M26.1407 10.5814C26.1407 10.5814 20.2753 10.6158 15.8198 18.449C11.3652 26.2814 12.0881 32.8556 15.1323 38.5118C18.1754 44.1687 21.6639 46.9222 27.0562 47.321C32.4476 47.7205 41.1878 39.3693 41.1786 33.5917C41.1671 26.1608 39.1529 19.4264 37.057 16.29C34.961 13.1537 32.0404 11.6788 30.5333 11.0851C29.0278 10.4917 27.4124 10.3933 27.4124 10.3933L26.1417 10.5807L26.1407 10.5814Z" fill="#4B5B19"/>
<path d="M23.0295 9.85511C23.0295 9.85511 23.9996 10.8012 24.3379 10.9653L24.6752 11.1302L24.0144 12.422C24.0144 12.422 23.1017 11.6019 23.1165 11.5753C23.1314 11.5486 23.0285 9.85581 23.0285 9.85581L23.0295 9.85511Z" fill="#6B7B3E"/>
<path d="M23.0304 9.8551C22.7305 10.895 22.2438 11.6452 22.2438 11.6452L24.0159 12.423L23.0311 9.85613L23.0304 9.8551Z" fill="#4B5B19"/>
<path d="M20.9479 10.5768C20.9479 10.5768 22.1121 11.2706 22.4796 11.3519L22.847 11.4332L22.5054 12.8436C22.5054 12.8436 21.4269 12.258 21.4352 12.2283C21.4435 12.1987 20.9489 10.5761 20.9489 10.5761L20.9479 10.5768Z" fill="#6B7B3E"/>
<path d="M20.9488 10.5768C20.8991 11.6579 20.6018 12.5011 20.6018 12.5011L22.5064 12.8436L20.9488 10.5768Z" fill="#4B5B19"/>
<path d="M19.3417 11.6934C19.3417 11.6934 20.601 12.1964 20.9751 12.2192L21.3509 12.2422L21.2346 13.6883C21.2346 13.6883 20.078 13.2788 20.0812 13.2482C20.0843 13.2175 19.3427 11.6927 19.3427 11.6927L19.3417 11.6934Z" fill="#6B7B3E"/>
<path d="M19.3411 11.6934C19.4619 12.7694 19.2987 13.6488 19.2987 13.6488L21.233 13.689L19.3401 11.6941L19.3411 11.6934Z" fill="#4B5B19"/>
<path d="M14.8711 16.8296C14.8711 16.8296 16.2257 16.8866 16.5869 16.7846L16.949 16.682L17.3194 18.0846C17.3194 18.0846 16.0918 18.082 16.085 18.0522C16.0782 18.0223 14.8728 16.8299 14.8728 16.8299L14.8711 16.8296Z" fill="#6B7B3E"/>
<path d="M14.8707 16.8296C15.341 17.804 15.4795 18.6879 15.4795 18.6879L17.3183 18.0835L14.8718 16.8289L14.8707 16.8296Z" fill="#4B5B19"/>
<path d="M16.0312 14.989C16.0312 14.989 17.3859 15.0459 17.747 14.944L18.1092 14.8413L18.4795 16.244C18.4795 16.244 17.252 16.2414 17.2452 16.2116C17.2383 16.1817 16.033 14.9893 16.033 14.9893L16.0312 14.989Z" fill="#6B7B3E"/>
<path d="M16.0309 14.989C16.5012 15.9634 16.6396 16.8474 16.6396 16.8474L18.4785 16.243L16.0319 14.9883L16.0309 14.989Z" fill="#4B5B19"/>
<path d="M17.5566 13.2177C17.5566 13.2177 18.8852 13.4875 19.2586 13.4431L19.632 13.3988L19.7768 14.8426C19.7768 14.8426 18.5645 14.6466 18.5632 14.616C18.5618 14.5854 17.5584 13.218 17.5584 13.218L17.5566 13.2177Z" fill="#6B7B3E"/>
<path d="M17.5559 13.2177C17.8671 14.2539 17.8634 15.1492 17.8634 15.1492L19.7743 14.8423L17.5559 13.2177Z" fill="#4B5B19"/>
<path d="M24.9484 9.2351C24.9484 9.2351 25.8282 10.2667 26.1493 10.4606L26.4711 10.6555L25.6943 11.8807C25.6943 11.8807 24.8613 10.9794 24.8785 10.9541C24.8958 10.9288 24.9487 9.23338 24.9487 9.23338L24.9484 9.2351Z" fill="#6B7B3E"/>
<path d="M24.9476 9.23509C24.5539 10.243 23.9996 10.9446 23.9996 10.9446L25.6924 11.8814L24.9469 9.23407L24.9476 9.23509Z" fill="#4B5B19"/>
<path d="M11.6895 25.3183C11.6895 25.3183 12.9703 24.8749 13.2686 24.6477L13.568 24.4198L14.4261 25.5892C14.4261 25.5892 13.2828 26.0363 13.2661 26.0117C13.2493 25.9872 11.6895 25.3183 11.6895 25.3183Z" fill="#6B7B3E"/>
<path d="M11.6895 25.3183C12.4837 26.0526 12.9361 26.8247 12.9361 26.8247L14.4261 25.5892L11.6895 25.3183Z" fill="#4B5B19"/>
<path d="M12.0742 23.3994C12.0742 23.3994 13.3551 22.956 13.6534 22.7288L13.9528 22.5009L14.8108 23.6703C14.8108 23.6703 13.6676 24.1174 13.6508 24.0929C13.6341 24.0683 12.0742 23.3994 12.0742 23.3994Z" fill="#6B7B3E"/>
<path d="M12.0742 23.3994C12.8685 24.1337 13.3209 24.9058 13.3209 24.9058L14.8108 23.6703L12.0742 23.3994Z" fill="#4B5B19"/>
<path d="M12.7081 21.1376C12.7081 21.1376 14.0407 20.887 14.3687 20.7056L14.6978 20.5234L15.3754 21.8068C15.3754 21.8068 14.1792 22.0815 14.1655 22.0548C14.1529 22.0274 12.707 21.1383 12.707 21.1383L12.7081 21.1376Z" fill="#6B7B3E"/>
<path d="M12.7072 21.1376C13.3863 21.9803 13.7206 22.8103 13.7206 22.8103L15.3745 21.8067L12.7072 21.1376Z" fill="#4B5B19"/>
<path d="M13.7148 18.9921C13.7148 18.9921 15.0649 18.8661 15.4084 18.7162L15.7529 18.5655L16.309 19.9061C16.309 19.9061 15.092 20.0689 15.0814 20.0401C15.0708 20.0114 13.7148 18.9921 13.7148 18.9921Z" fill="#6B7B3E"/>
<path d="M13.7142 18.9921C14.3114 19.8951 14.5675 20.7514 14.5675 20.7514L16.3077 19.9051L13.7142 18.9921Z" fill="#4B5B19"/>
<path d="M11.4512 27.4035C11.4512 27.4035 12.732 26.9601 13.0304 26.7329L13.3297 26.505L14.1878 27.6744C14.1878 27.6744 13.0446 28.1215 13.0278 28.097C13.0111 28.0724 11.4512 27.4035 11.4512 27.4035Z" fill="#6B7B3E"/>
<path d="M11.4512 27.4035C12.2454 28.1378 12.6978 28.9099 12.6978 28.9099L14.1878 27.6744L11.4512 27.4035Z" fill="#4B5B19"/>
<path d="M11.1327 29.6839C11.1327 29.6839 12.2763 28.9574 12.5145 28.6661L12.7527 28.3749L13.8578 29.3145C13.8578 29.3145 12.8488 30.0138 12.8259 29.9933C12.803 29.9729 11.132 29.6828 11.132 29.6828L11.1327 29.6839Z" fill="#6B7B3E"/>
<path d="M11.1328 29.6838C12.0753 30.2151 12.6943 30.8617 12.6943 30.8617L13.8586 29.3154L11.1338 29.6831L11.1328 29.6838Z" fill="#4B5B19"/>
<path d="M11.3933 32.3312C11.3933 32.3312 12.3168 31.3391 12.4727 30.9974L12.6302 30.656L13.9369 31.2857C13.9369 31.2857 13.1373 32.2175 13.1106 32.2027C13.083 32.1885 11.3933 32.3312 11.3933 32.3312Z" fill="#6B7B3E"/>
<path d="M11.3926 32.3312C12.4388 32.6073 13.2005 33.0757 13.2005 33.0757L13.9362 31.2858L11.3926 32.3312Z" fill="#4B5B19"/>
<path d="M11.9334 33.877C11.9334 33.877 12.9904 33.0279 13.1947 32.7133L13.3989 32.3986L14.6005 33.211C14.6005 33.211 13.6747 34.0171 13.6505 33.9991C13.6262 33.9812 11.9324 33.8777 11.9324 33.8777L11.9334 33.877Z" fill="#6B7B3E"/>
<path d="M11.9327 33.877C12.9285 34.3014 13.6138 34.8759 13.6138 34.8759L14.5998 33.211L11.9316 33.8777L11.9327 33.877Z" fill="#4B5B19"/>
<path d="M12.5014 36.2029C12.5014 36.2029 13.3333 35.1335 13.4595 34.7791L13.5856 34.4246L14.943 34.9373C14.943 34.9373 14.229 35.9353 14.2 35.9235C14.172 35.9111 12.5007 36.2019 12.5007 36.2019L12.5014 36.2029Z" fill="#6B7B3E"/>
<path d="M12.501 36.2029C13.5677 36.3855 14.3672 36.7861 14.3672 36.7861L14.9424 34.939L12.5 36.2036L12.501 36.2029Z" fill="#4B5B19"/>
<path d="M13.3805 38.4179C13.3805 38.4179 13.9156 37.1727 13.9483 36.7978L13.981 36.4229L15.4236 36.576C15.4236 36.576 14.9848 37.7226 14.9545 37.7178C14.9242 37.7129 13.3808 38.4162 13.3808 38.4162L13.3805 38.4179Z" fill="#6B7B3E"/>
<path d="M13.3813 38.4179C14.46 38.3253 15.3344 38.5099 15.3344 38.5099L15.4234 36.5768L13.3806 38.4169L13.3813 38.4179Z" fill="#4B5B19"/>
<path d="M14.1855 40.112C14.1855 40.112 14.954 38.9958 15.0598 38.6357L15.1656 38.2756L16.5505 38.7095C16.5505 38.7095 15.895 39.7472 15.8656 39.7372C15.8363 39.7271 14.1851 40.1137 14.1851 40.1137L14.1855 40.112Z" fill="#6B7B3E"/>
<path d="M14.1855 40.112C15.2612 40.233 16.0822 40.5859 16.0822 40.5859L16.5498 38.7085L14.1855 40.112Z" fill="#4B5B19"/>
<path d="M15.2803 42.1382C15.2803 42.1382 15.7716 40.8748 15.7909 40.5001L15.8102 40.1254L17.2571 40.2275C17.2571 40.2275 16.8584 41.3888 16.8287 41.385C16.7981 41.3818 15.2803 42.1382 15.2803 42.1382Z" fill="#6B7B3E"/>
<path d="M15.2801 42.1381C16.3542 42.0081 17.2352 42.1627 17.2352 42.1627L17.2568 40.2275L15.2801 42.1381Z" fill="#4B5B19"/>
<path d="M17.06 44.1152C17.06 44.1152 17.2155 42.7686 17.1389 42.4006L17.0623 42.0327L18.489 41.766C18.489 41.766 18.397 42.9899 18.3668 42.994C18.3366 42.9981 17.0593 44.1142 17.0593 44.1142L17.06 44.1152Z" fill="#6B7B3E"/>
<path d="M17.0601 44.1152C18.0673 43.7172 18.9576 43.6433 18.9576 43.6433L18.4891 41.766L17.0601 44.1152Z" fill="#4B5B19"/>
<path d="M18.411 45.04C18.411 45.04 18.7594 43.7299 18.7367 43.3552L18.7151 42.9799L20.1656 42.9221C20.1656 42.9221 19.8982 44.1199 19.867 44.1202C19.8367 44.1198 18.411 45.04 18.411 45.04Z" fill="#6B7B3E"/>
<path d="M18.4105 45.04C19.4642 44.7918 20.3559 44.8476 20.3559 44.8476L20.1634 42.9218L18.4098 45.039L18.4105 45.04Z" fill="#4B5B19"/>
<path d="M20.2447 46.5783C20.2447 46.5783 20.282 45.2235 20.1736 44.8638L20.0651 44.5041L21.4627 44.1132C21.4627 44.1132 21.478 45.3406 21.4489 45.3484C21.419 45.3552 20.2454 46.5793 20.2454 46.5793L20.2447 46.5783Z" fill="#6B7B3E"/>
<path d="M20.244 46.5783C21.2115 46.0933 22.0925 45.9418 22.0925 45.9418L21.4614 44.1122L20.244 46.5783Z" fill="#4B5B19"/>
<path d="M40.8813 20.9046C40.8813 20.9046 39.9262 21.8658 39.7579 22.2025L39.5907 22.5384L38.3056 21.8655C38.3056 21.8655 39.1357 20.9609 39.1613 20.9765C39.188 20.9913 40.8813 20.9046 40.8813 20.9046Z" fill="#6B7B3E"/>
<path d="M40.8817 20.9046C39.8444 20.5954 39.0994 20.1007 39.0994 20.1007L38.306 21.8654L40.8827 20.9039L40.8817 20.9046Z" fill="#4B5B19"/>
<path d="M40.0102 18.5814C40.0102 18.5814 39.3752 19.7791 39.3128 20.1502L39.2498 20.5202L37.8249 20.25C37.8249 20.25 38.3553 19.1431 38.3852 19.1497C38.4152 19.1562 40.0102 18.5814 40.0102 18.5814Z" fill="#6B7B3E"/>
<path d="M40.0094 18.5814C38.9268 18.5868 38.0695 18.3305 38.0695 18.3305L37.8225 20.2497L40.0077 18.5811L40.0094 18.5814Z" fill="#4B5B19"/>
<path d="M38.9368 16.553C38.9368 16.553 38.5453 17.8504 38.5545 18.2252L38.5645 18.601L37.1135 18.6096C37.1135 18.6096 37.4219 17.4214 37.4511 17.4224C37.4814 17.4228 38.9361 16.5519 38.9361 16.5519L38.9368 16.553Z" fill="#6B7B3E"/>
<path d="M38.9364 16.553C37.8751 16.7658 36.9855 16.6801 36.9855 16.6801L37.1128 18.6114L38.9364 16.553Z" fill="#4B5B19"/>
<path d="M38.0726 18.3542C38.0726 18.3542 37.6811 19.6516 37.6893 20.0271L37.6992 20.403L36.2483 20.4116C36.2483 20.4116 36.5566 19.2233 36.5859 19.2244C36.6161 19.2248 38.0709 18.3539 38.0709 18.3539L38.0726 18.3542Z" fill="#6B7B3E"/>
<path d="M38.0731 18.3542C37.0118 18.567 36.1222 18.4813 36.1222 18.4813L36.2495 20.4126L38.0731 18.3542Z" fill="#4B5B19"/>
<path d="M38.2503 20.1436C38.2503 20.1436 37.8588 21.441 37.867 21.8165L37.877 22.1923L36.426 22.2009C36.426 22.2009 36.7343 21.0127 36.7636 21.0138C36.7939 21.0142 38.2486 20.1433 38.2486 20.1433L38.2503 20.1436Z" fill="#6B7B3E"/>
<path d="M38.2508 20.1436C37.1895 20.3564 36.2999 20.2707 36.2999 20.2707L36.4272 22.202L38.2508 20.1436Z" fill="#4B5B19"/>
<path d="M38.5784 21.7094C38.5784 21.7094 38.1869 23.0068 38.1951 23.3823L38.2051 23.7581L36.7541 23.7667C36.7541 23.7667 37.0625 22.5785 37.0927 22.5789C37.123 22.5793 38.5777 21.7083 38.5777 21.7083L38.5784 21.7094Z" fill="#6B7B3E"/>
<path d="M38.579 21.7093C37.5176 21.9222 36.6281 21.8365 36.6281 21.8365L36.7553 23.7677L38.579 21.7093Z" fill="#4B5B19"/>
<path d="M37.2952 16.5103C37.2952 16.5103 36.9037 17.8077 36.912 18.1832L36.9219 18.559L35.4709 18.5676C35.4709 18.5676 35.7793 17.3794 35.8096 17.3798C35.8398 17.3801 37.2945 16.5092 37.2945 16.5092L37.2952 16.5103Z" fill="#6B7B3E"/>
<path d="M37.2958 16.5102C36.2344 16.7231 35.3449 16.6373 35.3449 16.6373L35.4721 18.5686L37.2958 16.5102Z" fill="#4B5B19"/>
<path d="M36.1488 14.9578C36.1488 14.9578 35.7572 16.2553 35.7654 16.6308L35.7754 17.0066L34.3244 17.0152C34.3244 17.0152 34.6328 15.827 34.663 15.8273C34.6933 15.8277 36.1481 14.9568 36.1481 14.9568L36.1488 14.9578Z" fill="#6B7B3E"/>
<path d="M36.1493 14.9578C35.088 15.1706 34.1984 15.0849 34.1984 15.0849L34.3257 17.0162L36.1493 14.9578Z" fill="#4B5B19"/>
<path d="M37.947 14.9595C37.947 14.9595 37.3072 16.1545 37.2431 16.5252L37.1784 16.8949L35.7538 16.6185C35.7538 16.6185 36.2889 15.5143 36.3189 15.5208C36.3489 15.5274 37.947 14.9595 37.947 14.9595Z" fill="#6B7B3E"/>
<path d="M37.9465 14.9595C36.8638 14.9603 36.0082 14.6999 36.0082 14.6999L35.7533 16.6184L37.9465 14.9595Z" fill="#4B5B19"/>
<path d="M36.6331 13.0699C36.6331 13.0699 36.2864 14.3804 36.3091 14.755L36.3317 15.1297L34.8817 15.1902C34.8817 15.1902 35.1472 13.9921 35.1785 13.9918C35.2088 13.9922 36.6331 13.0699 36.6331 13.0699Z" fill="#6B7B3E"/>
<path d="M36.6333 13.07C35.581 13.3202 34.6882 13.2652 34.6882 13.2652L34.8836 15.1906L36.6333 13.07Z" fill="#4B5B19"/>
<path d="M34.6407 11.3038C34.6407 11.3038 34.6371 12.6596 34.7541 13.0165L34.8712 13.3733L33.4832 13.7982C33.4832 13.7982 33.4372 12.5722 33.4674 12.5636C33.4966 12.5557 34.6407 11.3038 34.6407 11.3038Z" fill="#6B7B3E"/>
<path d="M34.6409 11.3038C33.6851 11.8124 32.808 11.9852 32.808 11.9852L33.4834 13.7982L34.6409 11.3038Z" fill="#4B5B19"/>
<path d="M33.1965 10.5361C33.1965 10.5361 32.9967 11.877 33.0612 12.2471L33.1258 12.6172L31.691 12.8369C31.691 12.8369 31.8233 11.617 31.8536 11.6129C31.8838 11.6088 33.1965 10.5361 33.1965 10.5361Z" fill="#6B7B3E"/>
<path d="M33.1965 10.5361C32.1777 10.9015 31.2843 10.9445 31.2843 10.9445L31.6911 12.8369L33.1965 10.5361Z" fill="#4B5B19"/>
<path d="M31.0975 9.46465C31.0975 9.46465 31.2127 10.8145 31.3603 11.161L31.5082 11.5059L30.1634 12.0514C30.1634 12.0514 30.0106 10.8337 30.0393 10.8231C30.0681 10.8125 31.0975 9.46465 31.0975 9.46465Z" fill="#6B7B3E"/>
<path d="M31.0994 9.46471C30.1921 10.0557 29.3337 10.3043 29.3337 10.3043L30.1663 12.0507L31.1004 9.46401L31.0994 9.46471Z" fill="#4B5B19"/>
<path d="M41.7529 37.7702C41.7529 37.7702 40.4066 37.9281 40.066 38.0866L39.7254 38.2451L39.1381 36.9182C39.1381 36.9182 40.3506 36.727 40.3623 36.7551C40.3739 36.7831 41.7529 37.7702 41.7529 37.7702Z" fill="#6B7B3E"/>
<path d="M41.7535 37.7702C41.1348 36.8818 40.8588 36.0317 40.8588 36.0317L39.1387 36.9183L41.7535 37.7702Z" fill="#4B5B19"/>
<path d="M42.3695 35.3411C42.3695 35.3411 41.0955 35.8053 40.8013 36.0387L40.5065 36.2711L39.6289 35.1149C39.6289 35.1149 40.764 34.6493 40.7818 34.6732C40.7993 34.6988 42.3699 35.3393 42.3699 35.3393L42.3695 35.3411Z" fill="#6B7B3E"/>
<path d="M42.3705 35.3411C41.564 34.6196 41.0993 33.8559 41.0993 33.8559L39.6305 35.116L42.3705 35.3411Z" fill="#4B5B19"/>
<path d="M42.7469 32.8301C42.7469 32.8301 41.6324 33.6012 41.406 33.901L41.1796 34.2008L40.0384 33.3052C40.0384 33.3052 41.0192 32.5666 41.0421 32.587C41.066 32.6068 42.7469 32.8301 42.7469 32.8301Z" fill="#6B7B3E"/>
<path d="M42.7479 32.8301C41.7848 32.3368 41.1416 31.7142 41.1416 31.7142L40.0394 33.3052L42.7479 32.8301Z" fill="#4B5B19"/>
<path d="M42.8454 30.8583C42.8454 30.8583 41.6013 31.3952 41.32 31.6453L41.0388 31.8954L40.0957 30.7929C40.0957 30.7929 41.2023 30.2611 41.2208 30.2861C41.2396 30.3093 42.844 30.8607 42.844 30.8607L42.8454 30.8583Z" fill="#6B7B3E"/>
<path d="M42.8463 30.8583C41.9994 30.1855 41.4903 29.449 41.4903 29.449L40.097 30.7912L42.8456 30.8573L42.8463 30.8583Z" fill="#4B5B19"/>
<path d="M41.2448 30.3976C41.2448 30.3976 40.0006 30.9345 39.7194 31.1846L39.4392 31.434L38.4961 30.3315C38.4961 30.3315 39.6027 29.7997 39.6212 29.8247C39.64 29.8479 41.2444 30.3993 41.2444 30.3993L41.2448 30.3976Z" fill="#6B7B3E"/>
<path d="M41.2448 30.3976C40.3971 29.7237 39.8887 28.9883 39.8887 28.9883L38.4954 30.3305L41.2448 30.3976Z" fill="#4B5B19"/>
<path d="M39.9235 28.9852C39.9235 28.9852 38.6794 29.5221 38.3981 29.7722L38.1169 30.0223L37.1738 28.9198C37.1738 28.9198 38.2805 28.388 38.2989 28.413C38.3177 28.4362 39.9222 28.9876 39.9222 28.9876L39.9235 28.9852Z" fill="#6B7B3E"/>
<path d="M39.9245 28.9852C39.0775 28.3124 38.5684 27.5759 38.5684 27.5759L37.1751 28.9181L39.9238 28.9842L39.9245 28.9852Z" fill="#4B5B19"/>
<path d="M41.695 32.1664C41.695 32.1664 40.4508 32.7034 40.1696 32.9535L39.8883 33.2035L38.9453 32.101C38.9453 32.101 40.0519 31.5693 40.0704 31.5942C40.0889 31.6191 41.6936 32.1688 41.6936 32.1688L41.695 32.1664Z" fill="#6B7B3E"/>
<path d="M41.6949 32.1664C40.8479 31.4936 40.3398 30.7564 40.3398 30.7564L38.9466 32.0986L41.6952 32.1647L41.6949 32.1664Z" fill="#4B5B19"/>
<path d="M41.1569 34.3186C41.1569 34.3186 39.9127 34.8555 39.6315 35.1056L39.3513 35.355L38.4082 34.2525C38.4082 34.2525 39.5148 33.7208 39.5333 33.7457C39.5521 33.7689 41.1566 34.3204 41.1566 34.3204L41.1569 34.3186Z" fill="#6B7B3E"/>
<path d="M41.1578 34.3186C40.3102 33.6447 39.8027 32.9086 39.8027 32.9086L38.4095 34.2508L41.1588 34.3179L41.1578 34.3186Z" fill="#4B5B19"/>
<path d="M40.8552 36.313C40.8552 36.313 39.611 36.8499 39.3298 37.1L39.0485 37.3501L38.1055 36.2476C38.1055 36.2476 39.2121 35.7158 39.2306 35.7407C39.2494 35.7639 40.8538 36.3154 40.8538 36.3154L40.8552 36.313Z" fill="#6B7B3E"/>
<path d="M40.8551 36.313C40.0081 35.6401 39.5 34.903 39.5 34.903L38.1067 36.2451L40.8554 36.3113L40.8551 36.313Z" fill="#4B5B19"/>
<path d="M42.6649 28.649C42.6649 28.649 41.5779 29.4584 41.3626 29.7657L41.1472 30.0729L39.9752 29.2179C39.9752 29.2179 40.9295 28.4448 40.9534 28.4645C40.9766 28.4832 42.6659 28.6483 42.6659 28.6483L42.6649 28.649Z" fill="#6B7B3E"/>
<path d="M42.6644 28.649C41.6851 28.1893 41.0205 27.5903 41.0205 27.5903L39.9747 29.2179L42.6654 28.6483L42.6644 28.649Z" fill="#4B5B19"/>
<path d="M42.5414 26.5829C42.5414 26.5829 41.6945 27.6414 41.5636 27.9932L41.4326 28.3449L40.0822 27.814C40.0822 27.814 40.8104 26.8258 40.8384 26.8382C40.8664 26.8507 42.5414 26.5829 42.5414 26.5829Z" fill="#6B7B3E"/>
<path d="M42.5414 26.5829C41.4774 26.3865 40.6836 25.9745 40.6836 25.9745L40.0839 27.8143L42.5432 26.5832L42.5414 26.5829Z" fill="#4B5B19"/>
<path d="M41.9768 25.0187C41.9768 25.0187 40.9865 25.9438 40.8055 26.2727L40.6251 26.6026L39.366 25.8819C39.366 25.8819 40.2285 25.0094 40.2548 25.026C40.2804 25.0415 41.9768 25.0187 41.9768 25.0187Z" fill="#6B7B3E"/>
<path d="M41.9768 25.0188C40.9515 24.6699 40.2258 24.1486 40.2258 24.1486L39.3661 25.882L41.9768 25.0188Z" fill="#4B5B19"/>
<path d="M41.2421 22.7417C41.2421 22.7417 40.4909 23.8701 40.3927 24.2325L40.2928 24.5946L38.9016 24.1844C38.9016 24.1844 39.5395 23.1363 39.5681 23.1453C39.5974 23.1554 41.2421 22.7417 41.2421 22.7417Z" fill="#6B7B3E"/>
<path d="M41.2419 22.7417C40.1647 22.6383 39.3376 22.2985 39.3376 22.2985L38.9014 24.1845L41.2419 22.7417Z" fill="#4B5B19"/>
<path d="M40.2599 39.9993C40.2599 39.9993 38.922 39.784 38.5511 39.843L38.1803 39.9021L37.9771 38.4651C37.9771 38.4651 39.1961 38.6115 39.1984 38.6414C39.2015 38.6723 40.2603 39.9976 40.2603 39.9976L40.2599 39.9993Z" fill="#6B7B3E"/>
<path d="M40.2597 39.9993C39.9066 38.9766 39.8736 38.0823 39.8736 38.0823L37.9766 38.4669L40.2597 39.9993Z" fill="#4B5B19"/>
<path d="M40.2164 23.0997C40.2164 23.0997 39.1653 23.9552 38.9625 24.2719L38.7596 24.5886L37.5523 23.7832C37.5523 23.7832 38.4728 22.9716 38.4981 22.9889C38.5233 23.0062 40.2164 23.0997 40.2164 23.0997Z" fill="#6B7B3E"/>
<path d="M40.2175 23.0997C39.2186 22.6818 38.5299 22.1113 38.5299 22.1113L37.5544 23.7825L40.2175 23.0997Z" fill="#4B5B19"/>
<path d="M39.6375 20.7773C39.6375 20.7773 38.8117 21.8514 38.688 22.2073L38.5636 22.5621L37.2028 22.0577C37.2028 22.0577 37.9106 21.055 37.9396 21.0667C37.9679 21.0774 39.6364 20.778 39.6364 20.778L39.6375 20.7773Z" fill="#6B7B3E"/>
<path d="M39.6378 20.7774C38.5699 20.6016 37.7677 20.2059 37.7677 20.2059L37.2042 22.057L39.6378 20.7774Z" fill="#4B5B19"/>
<path d="M39.2963 39.9632C39.2963 39.9632 37.9407 39.9774 37.5856 40.0992L37.2305 40.2211L36.7875 38.8395C36.7875 38.8395 38.013 38.7774 38.0219 38.8058C38.0297 38.835 39.2974 39.9625 39.2974 39.9625L39.2963 39.9632Z" fill="#6B7B3E"/>
<path d="M39.2967 39.9632C38.7751 39.0146 38.5913 38.1391 38.5913 38.1391L36.7871 38.8384L39.297 39.9614L39.2967 39.9632Z" fill="#4B5B19"/>
<path d="M40.1691 37.6133C40.1691 37.6133 38.8541 37.9405 38.5359 38.1407L38.2177 38.341L37.4679 37.0993C37.4679 37.0993 38.6459 36.756 38.6606 36.782C38.6753 36.808 40.1691 37.6133 40.1691 37.6133Z" fill="#6B7B3E"/>
<path d="M40.1697 37.6134C39.4428 36.8107 39.0626 36.0014 39.0626 36.0014L37.4685 37.0993L40.1697 37.6134Z" fill="#4B5B19"/>
<path d="M40.8089 35.1568C40.8089 35.1568 39.6185 35.8056 39.3622 36.0792L39.105 36.3534L38.0645 35.3413C38.0645 35.3413 39.1175 34.711 39.1383 34.7328C39.1592 34.7546 40.8082 35.1557 40.8082 35.1557L40.8089 35.1568Z" fill="#6B7B3E"/>
<path d="M40.8095 35.1568C39.9046 34.5639 39.3306 33.8776 39.3306 33.8776L38.0658 35.3423L40.8095 35.1568Z" fill="#4B5B19"/>
<path d="M41.1503 33.4258C41.1503 33.4258 39.8567 33.8284 39.5503 34.046L39.2447 34.2647L38.4238 33.0685C38.4238 33.0685 39.5798 32.6576 39.5973 32.6833C39.6147 32.7089 41.1503 33.4258 41.1503 33.4258Z" fill="#6B7B3E"/>
<path d="M41.1504 33.4258C40.3796 32.6665 39.9522 31.8804 39.9522 31.8804L38.4239 33.0685L41.1504 33.4258Z" fill="#4B5B19"/>
<path d="M41.2059 31.2093C41.2059 31.2093 40.0397 31.9002 39.7925 32.1827L39.5459 32.4661L38.4707 31.4911C38.4707 31.4911 39.5013 30.8236 39.5232 30.8447C39.5451 30.8658 41.2069 31.2086 41.2069 31.2086L41.2059 31.2093Z" fill="#6B7B3E"/>
<path d="M41.2052 31.2093C40.2799 30.6483 39.6824 29.9826 39.6824 29.9826L38.47 31.4911L41.2052 31.2093Z" fill="#4B5B19"/>
<path d="M41.2644 28.9219C41.2644 28.9219 40.31 29.8841 40.1435 30.2211L39.9762 30.5571L38.6898 29.8865C38.6898 29.8865 39.5175 28.9806 39.5441 28.9955C39.5708 29.0104 41.2644 28.9219 41.2644 28.9219Z" fill="#6B7B3E"/>
<path d="M41.2649 28.9219C40.2276 28.6127 39.4811 28.1205 39.4811 28.1205L38.6895 29.8855L41.2649 28.9219Z" fill="#4B5B19"/>
<path d="M40.8713 27.3077C40.8713 27.3077 39.7878 28.1223 39.5738 28.4315L39.3592 28.7397L38.1834 27.8903C38.1834 27.8903 39.1339 27.1138 39.1581 27.1318C39.1824 27.1498 40.8713 27.3077 40.8713 27.3077Z" fill="#6B7B3E"/>
<path d="M40.8705 27.3076C39.8885 26.8528 39.2216 26.2569 39.2216 26.2569L38.1827 27.8903L40.8695 27.3083L40.8705 27.3076Z" fill="#4B5B19"/>
<path d="M40.3788 24.9645C40.3788 24.9645 39.5135 26.007 39.3757 26.3575L39.2388 26.7073L37.8985 26.1515C37.8985 26.1515 38.6447 25.1765 38.6717 25.1897C38.6996 25.2021 40.3795 24.9656 40.3795 24.9656L40.3788 24.9645Z" fill="#6B7B3E"/>
<path d="M40.3783 24.9645C39.3171 24.7481 38.5311 24.3233 38.5311 24.3233L37.898 26.1514L40.3783 24.9645Z" fill="#4B5B19"/>
<path d="M37.5783 42.0216C37.5783 42.0216 36.2706 41.6656 35.8955 41.6855L35.5205 41.7054L35.4706 40.2555C35.4706 40.2555 36.6671 40.5297 36.6667 40.56C36.6664 40.5903 37.5776 42.0205 37.5776 42.0205L37.5783 42.0216Z" fill="#6B7B3E"/>
<path d="M37.5784 42.0216C37.3357 40.9671 37.397 40.0747 37.397 40.0747L35.4707 40.2556L37.5784 42.0216Z" fill="#4B5B19"/>
<path d="M37.6145 20.0496C37.6145 20.0496 36.6677 21.0186 36.5018 21.3566L36.337 21.6939L35.0462 21.0323C35.0462 21.0323 35.868 20.1199 35.8947 20.1348C35.9213 20.1497 37.6138 20.0485 37.6138 20.0485L37.6145 20.0496Z" fill="#6B7B3E"/>
<path d="M37.6144 20.0496C36.5747 19.748 35.8246 19.2612 35.8246 19.2612L35.0461 21.0323L37.6144 20.0496Z" fill="#4B5B19"/>
<path d="M36.7711 17.8087C36.7711 17.8087 36.0743 18.9705 35.9912 19.3377L35.9092 19.7041L34.5005 19.3584C34.5005 19.3584 35.0903 18.2815 35.1189 18.2905C35.1486 18.2988 36.7718 17.8097 36.7718 17.8097L36.7711 17.8087Z" fill="#6B7B3E"/>
<path d="M36.7719 17.8086C35.6914 17.7555 34.8488 17.4547 34.8488 17.4547L34.4995 19.358L36.7726 17.8097L36.7719 17.8086Z" fill="#4B5B19"/>
<path d="M38.6286 36.9082C38.6286 36.9082 37.2838 37.0771 36.9442 37.2394L36.6057 37.401L36.0068 36.079C36.0068 36.079 37.2178 35.8768 37.2294 35.9049C37.2411 35.9329 38.6286 36.9082 38.6286 36.9082Z" fill="#6B7B3E"/>
<path d="M38.6284 36.9082C38.0015 36.0254 37.7189 35.1767 37.7189 35.1767L36.0059 36.078L38.6277 36.9072L38.6284 36.9082Z" fill="#4B5B19"/>
<path d="M39.2249 34.4752C39.2249 34.4752 37.955 34.9501 37.6623 35.1855L37.3695 35.4209L36.4824 34.2728C36.4824 34.2728 37.6133 33.7965 37.6318 33.8214C37.6493 33.847 39.2249 34.4752 39.2249 34.4752Z" fill="#6B7B3E"/>
<path d="M39.2258 34.4752C38.4125 33.7614 37.941 33.0008 37.941 33.0008L36.4834 34.2728L39.2258 34.4752Z" fill="#4B5B19"/>
<path d="M39.581 31.9602C39.581 31.9602 38.4727 32.7406 38.2494 33.0427L38.0261 33.3449L36.8778 32.4587C36.8778 32.4587 37.852 31.7126 37.8752 31.7313C37.8991 31.751 39.5817 31.9612 39.5817 31.9612L39.581 31.9602Z" fill="#6B7B3E"/>
<path d="M39.5817 31.9602C38.6145 31.4742 37.9666 30.8578 37.9666 30.8578L36.8778 32.4577L39.5817 31.9602Z" fill="#4B5B19"/>
<path d="M39.7228 30.2027C39.7228 30.2027 38.4829 30.7503 38.2041 31.0017L37.9252 31.2531L36.9727 30.1586C36.9727 30.1586 38.0747 29.618 38.0942 29.6422C38.113 29.6654 39.7228 30.2027 39.7228 30.2027Z" fill="#6B7B3E"/>
<path d="M39.7227 30.2027C38.87 29.5368 38.3554 28.8055 38.3554 28.8055L36.9732 30.1596L39.7227 30.2027Z" fill="#4B5B19"/>
<path d="M39.5199 27.9942C39.5199 27.9942 38.4399 28.8139 38.227 29.1225L38.0137 29.4328L36.8346 28.5871C36.8346 28.5871 37.7822 27.8066 37.8054 27.8252C37.8287 27.8439 39.5189 27.9949 39.5189 27.9949L39.5199 27.9942Z" fill="#6B7B3E"/>
<path d="M39.5207 27.9942C38.537 27.5435 37.8669 26.9497 37.8669 26.9497L36.8353 28.5871L39.5207 27.9942Z" fill="#4B5B19"/>
<path d="M39.3219 25.7136C39.3219 25.7136 38.4844 26.7792 38.3559 27.1323L38.2273 27.4854L36.8729 26.9662C36.8729 26.9662 37.5925 25.9719 37.6204 25.9844C37.6484 25.9968 39.3209 25.7143 39.3209 25.7143L39.3219 25.7136Z" fill="#6B7B3E"/>
<path d="M39.3221 25.7136C38.2565 25.5258 37.4586 25.121 37.4586 25.121L36.8741 26.9655L39.3221 25.7136Z" fill="#4B5B19"/>
<path d="M38.746 24.1551C38.746 24.1551 37.7631 25.0887 37.5851 25.42L37.4072 25.7513L36.1416 25.0409C36.1416 25.0409 36.9975 24.1609 37.0231 24.1764C37.0487 24.192 38.745 24.1558 38.745 24.1558L38.746 24.1551Z" fill="#6B7B3E"/>
<path d="M38.7473 24.1551C37.7204 23.8149 36.9892 23.2987 36.9892 23.2987L36.144 25.0403L38.7473 24.1551Z" fill="#4B5B19"/>
<path d="M37.9894 21.8841C37.9894 21.8841 37.2485 23.0189 37.1521 23.3817L37.0556 23.7445L35.6604 23.346C35.6604 23.346 36.2896 22.2918 36.319 22.3018C36.3476 22.3108 37.9894 21.8841 37.9894 21.8841Z" fill="#6B7B3E"/>
<path d="M37.9886 21.8841C36.9105 21.7903 36.0803 21.4571 36.0803 21.4571L35.6596 23.346L37.9886 21.8841Z" fill="#4B5B19"/>
<path d="M37.1542 39.1499C37.1542 39.1499 35.815 38.9459 35.4435 39.0084L35.0737 39.0713L34.8585 37.6365C34.8585 37.6365 36.0784 37.7732 36.0818 37.8024C36.0859 37.8326 37.1542 39.1499 37.1542 39.1499Z" fill="#6B7B3E"/>
<path d="M37.1542 39.1499C36.7925 38.13 36.7512 37.2368 36.7512 37.2368L34.8574 37.6371L37.1531 39.1506L37.1542 39.1499Z" fill="#4B5B19"/>
<path d="M36.4622 19.3161C36.4622 19.3161 35.5153 20.2851 35.3495 20.6231L35.1847 20.9604L33.8938 20.2989C33.8938 20.2989 34.7157 19.3865 34.7423 19.4014C34.7689 19.4162 36.4615 19.3151 36.4615 19.3151L36.4622 19.3161Z" fill="#6B7B3E"/>
<path d="M36.462 19.3161C35.4224 19.0145 34.6723 18.5278 34.6723 18.5278L33.8937 20.2989L36.462 19.3161Z" fill="#4B5B19"/>
<path d="M35.6208 17.0763C35.6208 17.0763 34.9239 18.2381 34.8408 18.6052L34.7589 18.9716L33.3501 18.6259C33.3501 18.6259 33.9399 17.5491 33.9685 17.5581C33.9982 17.5664 35.6215 17.0773 35.6215 17.0773L35.6208 17.0763Z" fill="#6B7B3E"/>
<path d="M35.6215 17.0762C34.541 17.023 33.6985 16.7222 33.6985 16.7222L33.3491 18.6256L35.6222 17.0773L35.6215 17.0762Z" fill="#4B5B19"/>
<path d="M37.4762 36.1741C37.4762 36.1741 36.1314 36.3429 35.7919 36.5052L35.4533 36.6668L34.8544 35.3449C34.8544 35.3449 36.0655 35.1426 36.0771 35.1707C36.0887 35.1988 37.4762 36.1741 37.4762 36.1741Z" fill="#6B7B3E"/>
<path d="M37.476 36.174C36.8492 35.2912 36.5666 34.4425 36.5666 34.4425L34.8535 35.3438L37.4753 36.173L37.476 36.174Z" fill="#4B5B19"/>
<path d="M38.0726 33.741C38.0726 33.741 36.8027 34.2159 36.5099 34.4513L36.2172 34.6867L35.3301 33.5386C35.3301 33.5386 36.461 33.0623 36.4795 33.0872C36.4969 33.1128 38.0726 33.741 38.0726 33.741Z" fill="#6B7B3E"/>
<path d="M38.0735 33.741C37.2602 33.0272 36.7886 32.2666 36.7886 32.2666L35.331 33.5386L38.0735 33.741Z" fill="#4B5B19"/>
<path d="M38.4286 31.2267C38.4286 31.2267 37.3204 32.0071 37.0971 32.3093L36.8738 32.6114L35.7255 31.7252C35.7255 31.7252 36.6996 30.9791 36.7228 30.9978C36.7468 31.0175 38.4293 31.2277 38.4293 31.2277L38.4286 31.2267Z" fill="#6B7B3E"/>
<path d="M38.4293 31.2267C37.4621 30.7408 36.8142 30.1244 36.8142 30.1244L35.7255 31.7242L38.4293 31.2267Z" fill="#4B5B19"/>
<path d="M38.5705 29.4693C38.5705 29.4693 37.3306 30.0168 37.0518 30.2682L36.7729 30.5197L35.8203 29.4252C35.8203 29.4252 36.9224 28.8845 36.9419 28.9087C36.9607 28.9319 38.5705 29.4693 38.5705 29.4693Z" fill="#6B7B3E"/>
<path d="M38.5704 29.4692C37.7177 28.8033 37.2031 28.0721 37.2031 28.0721L35.8209 29.4262L38.5704 29.4692Z" fill="#4B5B19"/>
<path d="M38.3695 27.2611C38.3695 27.2611 37.2895 28.0808 37.0766 28.3894L36.8633 28.6997L35.6842 27.854C35.6842 27.854 36.6318 27.0734 36.6551 27.0921C36.6793 27.1101 38.3685 27.2618 38.3685 27.2618L38.3695 27.2611Z" fill="#6B7B3E"/>
<path d="M38.3703 27.2611C37.3866 26.8104 36.7165 26.2165 36.7165 26.2165L35.6849 27.854L38.3703 27.2611Z" fill="#4B5B19"/>
<path d="M37.3017 32.5301C37.3017 32.5301 36.1934 33.3105 35.9701 33.6127L35.7468 33.9148L34.5985 33.0286C34.5985 33.0286 35.5727 32.2825 35.5959 32.3012C35.6198 32.3209 37.3024 32.5311 37.3024 32.5311L37.3017 32.5301Z" fill="#6B7B3E"/>
<path d="M37.3024 32.5301C36.3352 32.0442 35.6873 31.4278 35.6873 31.4278L34.5985 33.0276L37.3024 32.5301Z" fill="#4B5B19"/>
<path d="M35.8153 34.1026C35.8153 34.1026 34.7071 34.883 34.4838 35.1851L34.2605 35.4873L33.1122 34.6011C33.1122 34.6011 34.0863 33.855 34.1096 33.8737C34.1335 33.8934 35.816 34.1036 35.816 34.1036L35.8153 34.1026Z" fill="#6B7B3E"/>
<path d="M35.816 34.1026C34.8488 33.6166 34.2009 33.0002 34.2009 33.0002L33.1122 34.6001L35.816 34.1026Z" fill="#4B5B19"/>
<path d="M37.4435 30.7726C37.4435 30.7726 36.2036 31.3201 35.9248 31.5716L35.646 31.823L34.6934 30.7285C34.6934 30.7285 35.7954 30.1879 35.8149 30.2121C35.8337 30.2353 37.4435 30.7726 37.4435 30.7726Z" fill="#6B7B3E"/>
<path d="M37.4434 30.7726C36.5907 30.1066 36.0761 29.3754 36.0761 29.3754L34.6939 30.7295L37.4434 30.7726Z" fill="#4B5B19"/>
<path d="M37.2426 28.5652C37.2426 28.5652 36.1626 29.3849 35.9496 29.6935L35.7364 30.0037L34.5572 29.1581C34.5572 29.1581 35.5049 28.3775 35.5281 28.3962C35.5513 28.4149 37.2415 28.5659 37.2415 28.5659L37.2426 28.5652Z" fill="#6B7B3E"/>
<path d="M37.2433 28.5652C36.2596 28.1145 35.5896 27.5207 35.5896 27.5207L34.5573 29.1571L37.2426 28.5642L37.2433 28.5652Z" fill="#4B5B19"/>
<path d="M38.1683 24.9811C38.1683 24.9811 37.3308 26.0467 37.2023 26.3999L37.0737 26.753L35.7186 26.2327C35.7186 26.2327 36.4382 25.2385 36.4661 25.2509C36.4941 25.2634 38.1666 24.9808 38.1666 24.9808L38.1683 24.9811Z" fill="#6B7B3E"/>
<path d="M38.1698 24.9811C37.1041 24.7933 36.3063 24.3886 36.3063 24.3886L35.7218 26.2331L38.1698 24.9811Z" fill="#4B5B19"/>
<path d="M37.5946 23.4227C37.5946 23.4227 36.6116 24.3563 36.4347 24.6868L36.2568 25.0181L34.9912 24.3078C34.9912 24.3078 35.8471 23.4277 35.8727 23.4433C35.8983 23.4589 37.5946 23.4227 37.5946 23.4227Z" fill="#6B7B3E"/>
<path d="M37.595 23.4227C36.568 23.0824 35.8368 22.5663 35.8368 22.5663L34.9916 24.3078L37.595 23.4227Z" fill="#4B5B19"/>
<path d="M36.839 21.1517C36.839 21.1517 36.0981 22.2865 36.0017 22.6493L35.9052 23.012L34.5101 22.6136C34.5101 22.6136 35.1392 21.5593 35.1686 21.5694C35.1972 21.5784 36.839 21.1517 36.839 21.1517Z" fill="#6B7B3E"/>
<path d="M36.8382 21.1517C35.7601 21.0579 34.9299 20.7246 34.9299 20.7246L34.5092 22.6136L36.8382 21.1517Z" fill="#4B5B19"/>
<path d="M36.0038 38.4174C36.0038 38.4174 34.6646 38.2134 34.2931 38.2759L33.9233 38.3388L33.7081 36.904C33.7081 36.904 34.928 37.0407 34.9314 37.0699C34.9355 37.1002 36.0038 38.4174 36.0038 38.4174Z" fill="#6B7B3E"/>
<path d="M36.0047 38.4174C35.643 37.3975 35.6028 36.5037 35.6028 36.5037L33.709 36.904L36.0047 38.4174Z" fill="#4B5B19"/>
<path d="M24.9863 48.3466C24.9863 48.3466 24.268 47.1975 23.9798 46.9572L23.6906 46.7176L24.6396 45.6196C24.6396 45.6196 25.3306 46.6342 25.3106 46.6554C25.2895 46.6772 24.988 48.3469 24.988 48.3469L24.9863 48.3466Z" fill="#6B7B3E"/>
<path d="M24.9872 48.3466C25.5257 47.4081 26.1765 46.7953 26.1765 46.7953L24.6394 45.6203L24.9868 48.3483L24.9872 48.3466Z" fill="#4B5B19"/>
<path d="M27.357 48.4117C27.357 48.4117 26.3928 47.4586 26.0558 47.2921L25.7188 47.1256L26.3886 45.8381C26.3886 45.8381 27.2956 46.6651 27.2807 46.6917C27.2659 46.7184 27.357 48.4117 27.357 48.4117Z" fill="#6B7B3E"/>
<path d="M27.3579 48.4117C27.6653 47.3741 28.1569 46.6266 28.1569 46.6266L26.3905 45.8374L27.3589 48.411L27.3579 48.4117Z" fill="#4B5B19"/>
<path d="M29.5007 48.1069C29.5007 48.1069 28.3273 47.4283 27.9589 47.3522L27.5915 47.2754L27.9134 45.8604C27.9134 45.8604 29.0001 46.4314 28.9918 46.4611C28.9835 46.4908 29.5 48.1059 29.5 48.1059L29.5007 48.1069Z" fill="#6B7B3E"/>
<path d="M29.5017 48.1069C29.5363 47.0256 29.8236 46.1787 29.8236 46.1787L27.9141 45.8621L29.5007 48.1076L29.5017 48.1069Z" fill="#4B5B19"/>
<path d="M31.1822 47.9653C31.1822 47.9653 30.0007 47.3012 29.6317 47.2286L29.2626 47.1559L29.5683 45.7369C29.5683 45.7369 30.661 46.2948 30.6544 46.3248C30.6472 46.3538 31.1815 47.9642 31.1815 47.9642L31.1822 47.9653Z" fill="#6B7B3E"/>
<path d="M31.1816 47.9653C31.2038 46.8834 31.4812 46.0328 31.4812 46.0328L29.5684 45.7379L31.1816 47.9653Z" fill="#4B5B19"/>
<path d="M34.5785 46.1577C34.5785 46.1577 33.3818 45.5221 33.0111 45.458L32.6411 45.395L32.913 43.9704C32.913 43.9704 34.0186 44.5032 34.012 44.5332C34.0054 44.5631 34.5782 46.1595 34.5782 46.1595L34.5785 46.1577Z" fill="#6B7B3E"/>
<path d="M34.5792 46.1577C34.5756 45.0754 34.8336 44.2185 34.8336 44.2185L32.9141 43.9687L34.5792 46.1577Z" fill="#4B5B19"/>
<path d="M33.2093 47.2424C33.2093 47.2424 32.0127 46.6067 31.642 46.5426L31.2719 46.4796L31.5449 45.0544C31.5449 45.0544 32.6505 45.5871 32.6439 45.6171C32.6373 45.6471 33.21 47.2434 33.21 47.2434L33.2093 47.2424Z" fill="#6B7B3E"/>
<path d="M33.2101 47.2424C33.2065 46.1601 33.4645 45.3032 33.4645 45.3032L31.5449 45.0533L33.2101 47.2424Z" fill="#4B5B19"/>
<path d="M36.4179 44.6736C36.4179 44.6736 35.0993 44.361 34.7247 44.3926L34.3509 44.4252L34.2542 42.9772C34.2542 42.9772 35.4589 43.2128 35.4603 43.2434C35.4616 43.274 36.4186 44.6746 36.4186 44.6746L36.4179 44.6736Z" fill="#6B7B3E"/>
<path d="M36.4176 44.6736C36.1413 43.627 36.1734 42.7335 36.1734 42.7335L34.2539 42.9772L36.4176 44.6736Z" fill="#4B5B19"/>
<path d="M37.7636 43.143C37.7636 43.143 36.4244 42.939 36.0528 43.0015L35.6831 43.0644L35.4679 41.6296C35.4679 41.6296 36.6878 41.7663 36.6912 41.7955C36.6953 41.8257 37.7636 43.143 37.7636 43.143Z" fill="#6B7B3E"/>
<path d="M37.7645 43.143C37.4028 42.1231 37.3626 41.2292 37.3626 41.2292L35.4688 41.6296L37.7645 43.143Z" fill="#4B5B19"/>
<path d="M39.0436 41.7122C39.0436 41.7122 37.702 41.5158 37.3326 41.5814L36.9625 41.646L36.7391 40.2123C36.7391 40.2123 37.9596 40.3411 37.9637 40.3714C37.9678 40.4016 39.0446 41.7115 39.0446 41.7115L39.0436 41.7122Z" fill="#6B7B3E"/>
<path d="M39.0428 41.7122C38.6753 40.6948 38.6289 39.8007 38.6289 39.8007L36.7383 40.2123L39.0428 41.7122Z" fill="#4B5B19"/>
<path d="M22.4772 47.7289C22.4772 47.7289 22.1707 46.4088 21.9745 46.0878L21.7783 45.7668L23.0309 45.0352C23.0309 45.0352 23.357 46.2188 23.3293 46.2332C23.3026 46.2469 22.4755 47.7285 22.4755 47.7285L22.4772 47.7289Z" fill="#6B7B3E"/>
<path d="M22.4763 47.7289C23.2898 47.0157 24.1043 46.6454 24.1043 46.6454L23.031 45.0345L22.4766 47.7272L22.4763 47.7289Z" fill="#4B5B19"/>
<path d="M27.3672 7.32007L28.7181 7.62712L28.7339 7.00273L27.3672 7.32007Z" fill="#261C02"/>
<path d="M26.8523 4.333C26.8523 4.333 27.4816 4.64245 28.1215 4.62815C28.7622 4.61488 28.7087 4.35574 28.7087 4.35574L28.629 3.9194C28.629 3.9194 28.361 4.18897 27.9629 4.26964C27.5637 4.35101 26.8516 4.33197 26.8516 4.33197L26.8523 4.333Z" fill="#261C02"/>
<path d="M27.3425 6.56224C27.3425 6.56224 27.9719 6.87168 28.6118 6.85739C29.2524 6.84412 29.1989 6.58499 29.1989 6.58499L29.1192 6.14865C29.1192 6.14865 28.8513 6.41822 28.4531 6.49889C28.0539 6.58026 27.3418 6.56122 27.3418 6.56122L27.3425 6.56224Z" fill="#261C02"/>
<path d="M32.932 45.769C32.932 45.769 31.7353 45.1333 31.3646 45.0693L30.9946 45.0062L31.2665 43.5817C31.2665 43.5817 32.3721 44.1144 32.3655 44.1444C32.3589 44.1744 32.9317 45.7707 32.9317 45.7707L32.932 45.769Z" fill="#6B7B3E"/>
<path d="M32.9327 45.769C32.9291 44.6867 33.1871 43.8298 33.1871 43.8298L31.2676 43.58L32.9327 45.769Z" fill="#4B5B19"/>
<path d="M31.432 46.4608C31.432 46.4608 30.2353 45.8251 29.8646 45.7611L29.4946 45.6981L29.7665 44.2735C29.7665 44.2735 30.8721 44.8063 30.8655 44.8363C30.8589 44.8662 31.4317 46.4625 31.4317 46.4625L31.432 46.4608Z" fill="#6B7B3E"/>
<path d="M31.4327 46.4608C31.4292 45.3785 31.6872 44.5216 31.6872 44.5216L29.7676 44.2718L31.432 46.4598L31.4327 46.4608Z" fill="#4B5B19"/>
<path d="M29.6918 46.8011C29.6918 46.8011 28.4951 46.1654 28.1244 46.1014L27.7544 46.0383L28.0263 44.6138C28.0263 44.6138 29.1318 45.1465 29.1253 45.1765C29.1187 45.2065 29.6914 46.8028 29.6914 46.8028L29.6918 46.8011Z" fill="#6B7B3E"/>
<path d="M29.6925 46.8011C29.6889 45.7188 29.9469 44.8619 29.9469 44.8619L28.0273 44.6121L29.6925 46.8011Z" fill="#4B5B19"/>
<path d="M27.9945 47.0093C27.9945 47.0093 26.7978 46.3736 26.4271 46.3096L26.0571 46.2465L26.329 44.822C26.329 44.822 27.4346 45.3547 27.428 45.3847C27.4214 45.4147 27.9942 47.011 27.9942 47.011L27.9945 47.0093Z" fill="#6B7B3E"/>
<path d="M27.9952 47.0093C27.9916 45.9269 28.2496 45.0701 28.2496 45.0701L26.3301 44.8203L27.9952 47.0093Z" fill="#4B5B19"/>
<path d="M25.8504 47.0128C25.8504 47.0128 25.1543 45.8501 24.8699 45.6043L24.5854 45.3584L25.5548 44.2795C25.5548 44.2795 26.2265 45.3073 26.2054 45.3292C26.1843 45.3511 25.8494 47.0135 25.8494 47.0135L25.8504 47.0128Z" fill="#6B7B3E"/>
<path d="M25.8498 47.0129C26.406 46.0849 27.0696 45.4843 27.0696 45.4843L25.5553 44.2788L25.8498 47.0129Z" fill="#4B5B19"/>
<path d="M35.7986 36.458C35.7986 36.458 34.4652 36.6986 34.1347 36.8787L33.8053 37.0581L33.1366 35.7702C33.1366 35.7702 34.3346 35.5048 34.3483 35.5315C34.3609 35.5589 35.7993 36.459 35.7993 36.459L35.7986 36.458Z" fill="#6B7B3E"/>
<path d="M35.7987 36.458C35.1261 35.6093 34.7983 34.7779 34.7983 34.7779L33.1367 35.7702L35.7987 36.458Z" fill="#4B5B19"/>
<path d="M35.5983 32.0148C35.5983 32.0148 34.3936 32.6359 34.1311 32.9047L33.8679 33.1725L32.8516 32.1364C32.8516 32.1364 33.9196 31.5304 33.9394 31.5529C33.9603 31.5747 35.5977 32.0138 35.5977 32.0138L35.5983 32.0148Z" fill="#6B7B3E"/>
<path d="M35.5978 32.0148C34.7057 31.4011 34.1484 30.702 34.1484 30.702L32.8499 32.1371L35.5978 32.0148Z" fill="#4B5B19"/>
<path d="M35.6687 28.0863C35.6687 28.0863 34.4639 28.7074 34.2014 28.9763L33.9382 29.2441L32.9219 28.2079C32.9219 28.2079 33.9899 27.602 34.0097 27.6245C34.0306 27.6463 35.669 28.0846 35.669 28.0846L35.6687 28.0863Z" fill="#6B7B3E"/>
<path d="M35.6681 28.0863C34.776 27.4727 34.2187 26.7735 34.2187 26.7735L32.9203 28.2086L35.6681 28.0863Z" fill="#4B5B19"/>
<path d="M35.6648 25.5262C35.6648 25.5262 34.46 26.1473 34.1975 26.4161L33.9343 26.6839L32.918 25.6478C32.918 25.6478 33.986 25.0418 34.0059 25.0643C34.0267 25.0861 35.6641 25.5251 35.6641 25.5251L35.6648 25.5262Z" fill="#6B7B3E"/>
<path d="M35.6642 25.5262C34.7721 24.9125 34.2148 24.2134 34.2148 24.2134L32.9164 25.6485L35.6642 25.5262Z" fill="#4B5B19"/>
<path d="M36.1648 27.0603C36.1648 27.0603 34.96 27.6814 34.6975 27.9502L34.4343 28.218L33.418 27.1819C33.418 27.1819 34.486 26.5759 34.5058 26.5984C34.5257 26.6209 36.1641 27.0592 36.1641 27.0592L36.1648 27.0603Z" fill="#6B7B3E"/>
<path d="M36.1642 27.0602C35.2721 26.4466 34.7148 25.7475 34.7148 25.7475L33.4164 27.1826L36.1642 27.0602Z" fill="#4B5B19"/>
<path d="M35.7175 23.5539C35.7175 23.5539 34.5127 24.175 34.2502 24.4438L33.987 24.7116L32.9707 23.6755C32.9707 23.6755 34.0387 23.0695 34.0586 23.092C34.0794 23.1139 35.7168 23.5529 35.7168 23.5529L35.7175 23.5539Z" fill="#6B7B3E"/>
<path d="M35.7169 23.5539C34.8248 22.9403 34.2675 22.2411 34.2675 22.2411L32.9691 23.6762L35.7169 23.5539Z" fill="#4B5B19"/>
<path d="M35.5945 21.5734C35.5945 21.5734 34.3897 22.1945 34.1272 22.4633L33.864 22.7311L32.8477 21.695C32.8477 21.695 33.9157 21.089 33.9356 21.1115C33.9554 21.134 35.5938 21.5723 35.5938 21.5723L35.5945 21.5734Z" fill="#6B7B3E"/>
<path d="M35.5939 21.5733C34.7018 20.9597 34.1445 20.2606 34.1445 20.2606L32.846 21.6957L35.5939 21.5733Z" fill="#4B5B19"/>
<path d="M34.0506 38.1587C34.0506 38.1587 32.7171 38.3993 32.3867 38.5794L32.0573 38.7588L31.3886 37.4709C31.3886 37.4709 32.5866 37.2055 32.6002 37.2322C32.6129 37.2595 34.0513 38.1597 34.0513 38.1597L34.0506 38.1587Z" fill="#6B7B3E"/>
<path d="M34.0507 38.1587C33.3788 37.311 33.0503 36.4786 33.0503 36.4786L31.3887 37.4709L34.0507 38.1587Z" fill="#4B5B19"/>
<path d="M31.0452 42.7426C31.0452 42.7426 29.7785 42.2597 29.4035 42.2421L29.0284 42.2245L29.1226 40.777C29.1226 40.777 30.2863 41.1681 30.2831 41.1987C30.28 41.2294 31.0462 42.7419 31.0462 42.7419L31.0452 42.7426Z" fill="#6B7B3E"/>
<path d="M31.0456 42.7426C30.9083 41.6689 31.0578 40.7869 31.0578 40.7869L29.123 40.777L31.0466 42.7419L31.0456 42.7426Z" fill="#4B5B19"/>
<path d="M28.3558 45.3497C28.3558 45.3497 27.0891 44.8667 26.714 44.8491L26.3389 44.8315L26.4332 43.384C26.4332 43.384 27.5968 43.7752 27.5937 43.8058C27.5906 43.8364 28.3568 45.349 28.3568 45.349L28.3558 45.3497Z" fill="#6B7B3E"/>
<path d="M28.3562 45.3497C28.2189 44.2759 28.3683 43.394 28.3683 43.394L26.4336 43.384L28.3562 45.3497Z" fill="#4B5B19"/>
<path d="M33.1326 39.9549C33.1326 39.9549 31.7992 40.1955 31.4687 40.3756L31.1393 40.555L30.4706 39.2671C30.4706 39.2671 31.6686 39.0017 31.6823 39.0284C31.6949 39.0557 33.1333 39.9559 33.1333 39.9559L33.1326 39.9549Z" fill="#6B7B3E"/>
<path d="M33.1327 39.9549C32.4608 39.1073 32.1323 38.2748 32.1323 38.2748L30.4707 39.2671L33.1327 39.9549Z" fill="#4B5B19"/>
<path d="M32.2791 41.357C32.2791 41.357 30.9456 41.5977 30.6152 41.7778L30.2858 41.9571L29.6171 40.6693C29.6171 40.6693 30.8161 40.4031 30.8288 40.4305C30.8414 40.4579 32.2798 41.3581 32.2798 41.3581L32.2791 41.357Z" fill="#6B7B3E"/>
<path d="M32.2799 41.357C31.608 40.5094 31.2795 39.6769 31.2795 39.6769L29.6172 40.6682L32.2792 41.356L32.2799 41.357Z" fill="#4B5B19"/>
<path d="M34.3089 44.3692C34.3089 44.3692 33.1123 43.7335 32.7415 43.6695L32.3715 43.6065L32.6445 42.1812C32.6445 42.1812 33.7501 42.714 33.7435 42.7439C33.7369 42.7739 34.3096 44.3703 34.3096 44.3703L34.3089 44.3692Z" fill="#6B7B3E"/>
<path d="M34.3097 44.3692C34.3061 43.2869 34.5641 42.43 34.5641 42.43L32.6445 42.1802L34.3097 44.3692Z" fill="#4B5B19"/>
<path d="M35.9034 43.1372C35.9034 43.1372 34.5788 42.8512 34.2053 42.891L33.8319 42.9309L33.7053 41.4852C33.7053 41.4852 34.9146 41.6967 34.916 41.7273C34.9173 41.7579 35.9034 43.1372 35.9034 43.1372Z" fill="#6B7B3E"/>
<path d="M35.9031 43.1372C35.6052 42.0964 35.6193 41.203 35.6193 41.203L33.7051 41.4852L35.9031 43.1372Z" fill="#4B5B19"/>
<path d="M36.0792 41.5475C36.0792 41.5475 34.7546 41.2615 34.3811 41.3013L34.0077 41.3411L33.8811 39.8955C33.8811 39.8955 35.0904 40.107 35.0918 40.1376C35.0931 40.1682 36.0781 41.5482 36.0781 41.5482L36.0792 41.5475Z" fill="#6B7B3E"/>
<path d="M36.0789 41.5475C35.781 40.5066 35.7951 39.6133 35.7951 39.6133L33.8809 39.8955L36.0789 41.5475Z" fill="#4B5B19"/>
<path d="M38.0772 38.3984C38.0772 38.3984 36.7526 38.1124 36.3792 38.1523L36.0057 38.1921L35.8792 36.7464C35.8792 36.7464 37.0885 36.9579 37.0898 36.9885C37.0911 37.0191 38.0772 38.3984 38.0772 38.3984Z" fill="#6B7B3E"/>
<path d="M38.0769 38.3984C37.779 37.3576 37.7932 36.4643 37.7932 36.4643L35.8789 36.7465L38.0769 38.3984Z" fill="#4B5B19"/>
<path d="M36.9795 40.3622C36.9795 40.3622 35.655 40.0762 35.2815 40.1161L34.9081 40.1559L34.7815 38.7103C34.7815 38.7103 35.9908 38.9217 35.9922 38.9523C35.9935 38.9829 36.9795 40.3622 36.9795 40.3622Z" fill="#6B7B3E"/>
<path d="M36.9793 40.3623C36.6814 39.3214 36.6955 38.428 36.6955 38.428L34.7812 38.7103L36.9793 40.3623Z" fill="#4B5B19"/>
<path d="M34.9991 39.9136C34.9991 39.9136 33.6745 39.6276 33.3011 39.6674L32.9276 39.7072L32.801 38.2616C32.801 38.2616 34.0104 38.4731 34.0117 38.5037C34.013 38.5343 34.9991 39.9136 34.9991 39.9136Z" fill="#6B7B3E"/>
<path d="M34.9988 39.9136C34.7009 38.8727 34.715 37.9794 34.715 37.9794L32.8008 38.2616L34.9988 39.9136Z" fill="#4B5B19"/>
<path d="M34.2901 41.6864C34.2901 41.6864 32.9655 41.4004 32.5921 41.4402L32.2186 41.4801L32.0921 40.0344C32.0921 40.0344 33.3014 40.2459 33.3027 40.2765C33.3041 40.3071 34.2908 41.6874 34.2908 41.6874L34.2901 41.6864Z" fill="#6B7B3E"/>
<path d="M34.2899 41.6864C33.9919 40.6455 34.0061 39.7522 34.0061 39.7522L32.0918 40.0344L34.2899 41.6864Z" fill="#4B5B19"/>
<path d="M33.3624 43.1863C33.3624 43.1863 32.0378 42.9003 31.6643 42.9401L31.2909 42.98L31.1643 41.5343C31.1643 41.5343 32.3737 41.7458 32.375 41.7764C32.3763 41.807 33.3624 43.1863 33.3624 43.1863Z" fill="#6B7B3E"/>
<path d="M33.3621 43.1863C33.0642 42.1454 33.0783 41.2521 33.0783 41.2521L31.1641 41.5343L33.3621 43.1863Z" fill="#4B5B19"/>
<path d="M31.8049 44.8509C31.8049 44.8509 30.5765 44.2788 30.2029 44.2348L29.8293 44.1907L30.0261 42.7528C30.0261 42.7528 31.1589 43.2264 31.1534 43.2557C31.1485 43.286 31.8042 44.8499 31.8042 44.8499L31.8049 44.8509Z" fill="#6B7B3E"/>
<path d="M31.8054 44.8509C31.7461 43.7705 31.9572 42.9021 31.9572 42.9021L30.0273 42.7538L31.8044 44.8516L31.8054 44.8509Z" fill="#4B5B19"/>
<path d="M30.4787 45.6115C30.4787 45.6115 29.2503 45.0395 28.8767 44.9954L28.5031 44.9513L28.7 43.5134C28.7 43.5134 29.8328 43.9871 29.8272 44.0164C29.8224 44.0467 30.478 45.6105 30.478 45.6105L30.4787 45.6115Z" fill="#6B7B3E"/>
<path d="M30.4793 45.6116C30.4193 44.5301 30.6311 43.6627 30.6311 43.6627L28.7012 43.5145L30.4782 45.6123L30.4793 45.6116Z" fill="#4B5B19"/>
<path d="M19.8165 13.2608C19.8165 13.2608 20.9788 13.7248 21.3246 13.7458L21.6705 13.7668L21.5628 15.1019C21.5628 15.1019 20.4949 14.7236 20.4973 14.6964C20.5008 14.6685 19.8154 13.2615 19.8154 13.2615L19.8165 13.2608Z" fill="#6B7B3E"/>
<path d="M19.8171 13.2608C19.9288 14.2529 19.7784 15.0651 19.7784 15.0651L21.5645 15.1012L19.8182 13.2601L19.8171 13.2608Z" fill="#4B5B19"/>
<path d="M15.6934 18.0018C15.6934 18.0018 16.9434 18.055 17.2774 17.9595L17.6104 17.8647L17.9521 19.1593C17.9521 19.1593 16.8192 19.1568 16.8127 19.1297C16.8063 19.1026 15.6934 18.0018 15.6934 18.0018Z" fill="#6B7B3E"/>
<path d="M15.6924 18.0018C16.1268 18.9016 16.2533 19.7172 16.2533 19.7172L17.9502 19.16L15.6924 18.0018Z" fill="#4B5B19"/>
<path d="M16.7637 16.3031C16.7637 16.3031 18.0137 16.3563 18.3477 16.2608L18.6808 16.166L19.0225 17.4606C19.0225 17.4606 17.8895 17.4581 17.8831 17.431C17.8766 17.4039 16.7637 16.3031 16.7637 16.3031Z" fill="#6B7B3E"/>
<path d="M16.7627 16.3031C17.1971 17.2029 17.3236 18.0185 17.3236 18.0185L19.0205 17.4613L16.7627 16.3031Z" fill="#4B5B19"/>
<path d="M18.1699 14.6664C18.1699 14.6664 19.3961 14.9159 19.7403 14.875L20.0845 14.834L20.2182 16.1668C20.2182 16.1668 19.1004 15.986 19.0977 15.9579C19.0967 15.93 18.1706 14.6674 18.1706 14.6674L18.1699 14.6664Z" fill="#6B7B3E"/>
<path d="M18.1705 14.6664C18.4576 15.6231 18.4545 16.4489 18.4545 16.4489L20.2182 16.1658L18.1705 14.6664Z" fill="#4B5B19"/>
<path d="M12.7539 25.8362C12.7539 25.8362 13.9364 25.4269 14.2118 25.2167L14.4873 25.0066L15.2795 26.0858C15.2795 26.0858 14.2239 26.4988 14.2086 26.4762C14.1932 26.4537 12.7539 25.8362 12.7539 25.8362Z" fill="#6B7B3E"/>
<path d="M12.7539 25.8362C13.4874 26.5144 13.9048 27.2263 13.9048 27.2263L15.2795 26.0858L12.7539 25.8362Z" fill="#4B5B19"/>
<path d="M13.1094 24.0652C13.1094 24.0652 14.2919 23.6559 14.5673 23.4457L14.8428 23.2356L15.635 24.3148C15.635 24.3148 14.5794 24.7278 14.5641 24.7052C14.5487 24.6827 13.1094 24.0652 13.1094 24.0652Z" fill="#6B7B3E"/>
<path d="M13.1094 24.0652C13.8429 24.7434 14.2603 25.4553 14.2603 25.4553L15.635 24.3148L13.1094 24.0652Z" fill="#4B5B19"/>
<path d="M13.6944 21.9773C13.6944 21.9773 14.9244 21.7456 15.2274 21.5781L15.5305 21.4107L16.1555 22.5948C16.1555 22.5948 15.0516 22.8487 15.0393 22.824C15.0271 22.7994 13.6934 21.978 13.6934 21.978L13.6944 21.9773Z" fill="#6B7B3E"/>
<path d="M13.6952 21.9773C14.3213 22.7555 14.6296 23.5208 14.6296 23.5208L16.1573 22.5941L13.6952 21.9773Z" fill="#4B5B19"/>
<path d="M14.623 19.9973C14.623 19.9973 15.8686 19.881 16.1868 19.7423L16.5049 19.6036L17.0173 20.8404C17.0173 20.8404 15.8938 20.9906 15.8846 20.9638C15.8744 20.9378 14.623 19.9973 14.623 19.9973Z" fill="#6B7B3E"/>
<path d="M14.6235 19.9973C15.1749 20.831 15.4115 21.621 15.4115 21.621L17.0178 20.8404L14.6235 19.9973Z" fill="#4B5B19"/>
<path d="M12.5352 27.7607C12.5352 27.7607 13.7176 27.3513 13.9931 27.1412L14.2686 26.931L15.0607 28.0103C15.0607 28.0103 14.0052 28.4232 13.9898 28.4007C13.9745 28.3781 12.5352 27.7607 12.5352 27.7607Z" fill="#6B7B3E"/>
<path d="M12.5352 27.7607C13.2686 28.4388 13.686 29.1507 13.686 29.1507L15.0607 28.0103L12.5352 27.7607Z" fill="#4B5B19"/>
<path d="M12.2403 29.8654C12.2403 29.8654 13.2957 29.1945 13.5162 28.9258L13.7357 28.6577L14.7555 29.5249C14.7555 29.5249 13.8237 30.1701 13.8032 30.1511C13.7828 30.132 12.2396 29.8644 12.2396 29.8644L12.2403 29.8654Z" fill="#6B7B3E"/>
<path d="M12.2402 29.8654C13.1101 30.3561 13.6815 30.9527 13.6815 30.9527L14.7562 29.526L12.2409 29.8664L12.2402 29.8654Z" fill="#4B5B19"/>
<path d="M12.4805 32.3101C12.4805 32.3101 13.3325 31.3936 13.4769 31.0791L13.6224 30.764L14.8285 31.3453C14.8285 31.3453 14.0907 32.2049 14.0655 32.1921C14.0403 32.1793 12.4805 32.3101 12.4805 32.3101Z" fill="#6B7B3E"/>
<path d="M12.4805 32.3101C13.446 32.5646 14.1492 32.9978 14.1492 32.9978L14.8285 31.3453L12.4805 32.3101Z" fill="#4B5B19"/>
<path d="M12.9801 33.7362C12.9801 33.7362 13.9559 32.9529 14.1442 32.6611L14.3332 32.3703L15.443 33.1207C15.443 33.1207 14.5889 33.8646 14.566 33.8486C14.5432 33.8327 12.9801 33.7362 12.9801 33.7362Z" fill="#6B7B3E"/>
<path d="M12.9805 33.7361C13.8996 34.1273 14.5325 34.6579 14.5325 34.6579L15.4434 33.1207L12.9805 33.7361Z" fill="#4B5B19"/>
<path d="M13.5027 35.8836C13.5027 35.8836 14.2708 34.8968 14.3873 34.5699L14.5037 34.2431L15.7562 34.7162C15.7562 34.7162 15.0968 35.638 15.0712 35.6269C15.0457 35.6158 13.5027 35.8836 13.5027 35.8836Z" fill="#6B7B3E"/>
<path d="M13.502 35.8836C14.4866 36.0516 15.2249 36.4219 15.2249 36.4219L15.7554 34.7162L13.502 35.8836Z" fill="#4B5B19"/>
<path d="M14.3141 37.9285C14.3141 37.9285 14.8079 36.7789 14.8378 36.433L14.8677 36.087L16.1991 36.2289C16.1991 36.2289 15.7942 37.2863 15.7663 37.2828C15.7384 37.2793 14.3134 37.9274 14.3134 37.9274L14.3141 37.9285Z" fill="#6B7B3E"/>
<path d="M14.3145 37.9285C15.3096 37.8432 16.1172 38.0133 16.1172 38.0133L16.1994 36.2289L14.3138 37.9274L14.3145 37.9285Z" fill="#4B5B19"/>
<path d="M15.0593 39.4921C15.0593 39.4921 15.7695 38.4622 15.8666 38.129L15.9637 37.7957L17.2416 38.196C17.2416 38.196 16.6369 39.1541 16.6093 39.1444C16.5834 39.135 15.0586 39.4911 15.0586 39.4911L15.0593 39.4921Z" fill="#6B7B3E"/>
<path d="M15.0586 39.4921C16.0513 39.6036 16.8094 39.9303 16.8094 39.9303L17.2417 38.1971L15.0586 39.4921Z" fill="#4B5B19"/>
<path d="M16.0674 41.3623C16.0674 41.3623 16.5197 40.196 16.5389 39.8498L16.5565 39.5033L17.8922 39.5987C17.8922 39.5987 17.5239 40.6702 17.4967 40.6678C17.4688 40.6643 16.0681 41.3633 16.0681 41.3633L16.0674 41.3623Z" fill="#6B7B3E"/>
<path d="M16.0665 41.3623C17.0585 41.2417 17.8713 41.3842 17.8713 41.3842L17.8913 39.5987L16.0665 41.3623Z" fill="#4B5B19"/>
<path d="M17.7122 43.1866C17.7122 43.1866 17.856 41.944 17.7855 41.6049L17.7151 41.2658L19.0316 41.0201C19.0316 41.0201 18.9459 42.1498 18.9191 42.1545C18.8916 42.1582 17.7119 43.1884 17.7119 43.1884L17.7122 43.1866Z" fill="#6B7B3E"/>
<path d="M17.7117 43.1866C18.6408 42.8193 19.4631 42.7513 19.4631 42.7513L19.0314 41.0184L17.7117 43.1866Z" fill="#4B5B19"/>
<path d="M18.9599 44.0398C18.9599 44.0398 19.2811 42.8308 19.2611 42.4843L19.2412 42.1378L20.5792 42.0846C20.5792 42.0846 20.332 43.1907 20.3034 43.1907C20.2749 43.1906 18.9599 44.0398 18.9599 44.0398Z" fill="#6B7B3E"/>
<path d="M18.959 44.0398C19.9307 43.81 20.7553 43.862 20.7553 43.862L20.5784 42.0846L18.959 44.0398Z" fill="#4B5B19"/>
<path d="M20.6519 45.4602C20.6519 45.4602 20.6855 44.2101 20.5862 43.8771L20.4859 43.5448L21.7751 43.1842C21.7751 43.1842 21.7896 44.3177 21.7624 44.3242C21.7353 44.3306 20.6508 45.4609 20.6508 45.4609L20.6519 45.4602Z" fill="#6B7B3E"/>
<path d="M20.6522 45.4602C21.5447 45.0128 22.3584 44.8726 22.3584 44.8726L21.7755 43.1842L20.6522 45.4602Z" fill="#4B5B19"/>
<path d="M22.7115 46.5214C22.7115 46.5214 22.4277 45.3029 22.2472 45.0072L22.0668 44.7115L23.2229 44.0365C23.2229 44.0365 23.5234 45.1296 23.4988 45.1419C23.4738 45.1559 22.7105 46.5221 22.7105 46.5221L22.7115 46.5214Z" fill="#6B7B3E"/>
<path d="M22.7119 46.5213C23.4633 45.8624 24.2142 45.522 24.2142 45.522L23.2233 44.0365L22.7109 46.522L22.7119 46.5213Z" fill="#4B5B19"/>
<path d="M21.1153 13.3679C21.1153 13.3679 22.2776 13.832 22.6235 13.8529L22.9693 13.8739L22.8616 15.2091C22.8616 15.2091 21.7937 14.8307 21.7962 14.8035C21.7997 14.7756 21.1143 13.3686 21.1143 13.3686L21.1153 13.3679Z" fill="#6B7B3E"/>
<path d="M21.116 13.3679C21.2267 14.3607 21.0772 15.1722 21.0772 15.1722L22.8633 15.2084L21.117 13.3672L21.116 13.3679Z" fill="#4B5B19"/>
<path d="M16.9922 18.1088C16.9922 18.1088 18.2422 18.162 18.5763 18.0665L18.9093 17.9717L19.251 19.2663C19.251 19.2663 18.118 19.2639 18.1116 19.2368C18.1051 19.2097 16.9922 18.1088 16.9922 18.1088Z" fill="#6B7B3E"/>
<path d="M16.9912 18.1088C17.4257 19.0087 17.5521 19.8242 17.5521 19.8242L19.249 19.267L16.9912 18.1088Z" fill="#4B5B19"/>
<path d="M18.0605 16.4102C18.0605 16.4102 19.3106 16.4634 19.6446 16.3679L19.9776 16.2731L20.3193 17.5676C20.3193 17.5676 19.1864 17.5652 19.18 17.5381C19.1735 17.511 18.0605 16.4102 18.0605 16.4102Z" fill="#6B7B3E"/>
<path d="M18.0615 16.4102C18.4959 17.31 18.6224 18.1256 18.6224 18.1256L20.3193 17.5683L18.0615 16.4102Z" fill="#4B5B19"/>
<path d="M19.4688 14.7745C19.4688 14.7745 20.6949 15.024 21.0392 14.983L21.3834 14.9421L21.5171 16.2749C21.5171 16.2749 20.3992 16.0941 20.3965 16.066C20.3938 16.0378 19.4694 14.7755 19.4694 14.7755L19.4688 14.7745Z" fill="#6B7B3E"/>
<path d="M19.4694 14.7745C19.7565 15.7312 19.7534 16.557 19.7534 16.557L21.517 16.2739L19.4694 14.7745Z" fill="#4B5B19"/>
<path d="M14.0527 25.9434C14.0527 25.9434 15.2352 25.534 15.5107 25.3238L15.7861 25.1137L16.5783 26.1929C16.5783 26.1929 15.5228 26.6059 15.5074 26.5833C15.4921 26.5608 14.0527 25.9434 14.0527 25.9434Z" fill="#6B7B3E"/>
<path d="M14.0527 25.9434C14.7862 26.6215 15.2037 27.3334 15.2037 27.3334L16.5783 26.1929L14.0527 25.9434Z" fill="#4B5B19"/>
<path d="M14.4082 24.1723C14.4082 24.1723 15.5907 23.7629 15.8661 23.5528L16.1416 23.3426L16.9338 24.4219C16.9338 24.4219 15.8782 24.8348 15.8629 24.8123C15.8475 24.7897 14.4082 24.1723 14.4082 24.1723Z" fill="#6B7B3E"/>
<path d="M14.4082 24.1723C15.1417 24.8504 15.5591 25.5623 15.5591 25.5623L16.9338 24.4219L14.4082 24.1723Z" fill="#4B5B19"/>
<path d="M14.9932 22.0843C14.9932 22.0843 16.2222 21.8533 16.5263 21.6852L16.8293 21.5178L17.4544 22.7019C17.4544 22.7019 16.3505 22.9557 16.3382 22.9311C16.3259 22.9064 14.9922 22.085 14.9922 22.085L14.9932 22.0843Z" fill="#6B7B3E"/>
<path d="M14.994 22.0843C15.6202 22.8626 15.9284 23.6279 15.9284 23.6279L17.4562 22.7012L14.994 22.0843Z" fill="#4B5B19"/>
<path d="M15.9238 20.1053C15.9238 20.1053 17.1694 19.9891 17.4875 19.8504L17.8057 19.7117L18.3181 20.9485C18.3181 20.9485 17.1946 21.0987 17.1854 21.0719C17.1751 21.0459 15.9249 20.1046 15.9249 20.1046L15.9238 20.1053Z" fill="#6B7B3E"/>
<path d="M15.9234 20.1053C16.4748 20.939 16.7103 21.7298 16.7103 21.7298L18.3166 20.9492L15.9224 20.106L15.9234 20.1053Z" fill="#4B5B19"/>
<path d="M13.834 27.8688C13.834 27.8688 15.0165 27.4594 15.2919 27.2493L15.5674 27.0391L16.3596 28.1184C16.3596 28.1184 15.304 28.5313 15.2887 28.5088C15.2733 28.4862 13.834 27.8688 13.834 27.8688Z" fill="#6B7B3E"/>
<path d="M13.834 27.8688C14.5675 28.5469 14.9849 29.2588 14.9849 29.2588L16.3596 28.1184L13.834 27.8688Z" fill="#4B5B19"/>
<path d="M13.5391 29.9735C13.5391 29.9735 14.5945 29.3026 14.815 29.0339L15.0346 28.7658L16.0543 29.633C16.0543 29.633 15.1225 30.2782 15.1021 30.2592C15.0816 30.2401 13.5384 29.9725 13.5384 29.9725L13.5391 29.9735Z" fill="#6B7B3E"/>
<path d="M13.5391 29.9735C14.4089 30.4642 14.9803 31.0607 14.9803 31.0607L16.055 29.6341L13.5398 29.9745L13.5391 29.9735Z" fill="#4B5B19"/>
<path d="M14.6036 31.0143C14.6036 31.0143 15.659 30.3434 15.8795 30.0746L16.099 29.8066L17.1188 30.6738C17.1188 30.6738 16.187 31.319 16.1665 31.3C16.146 31.2809 14.6029 31.0132 14.6029 31.0132L14.6036 31.0143Z" fill="#6B7B3E"/>
<path d="M14.6035 31.0143C15.4744 31.5043 16.0448 32.1015 16.0448 32.1015L17.1194 30.6748L14.6042 31.0153L14.6035 31.0143Z" fill="#4B5B19"/>
<path d="M15.086 28.9817C15.086 28.9817 16.1414 28.3108 16.3619 28.042L16.5814 27.774L17.6012 28.6412C17.6012 28.6412 16.6694 29.2864 16.6489 29.2673C16.6285 29.2483 15.0853 28.9806 15.0853 28.9806L15.086 28.9817Z" fill="#6B7B3E"/>
<path d="M15.0859 28.9817C15.9568 29.4717 16.5272 30.0689 16.5272 30.0689L17.6018 28.6422L15.0866 28.9827L15.0859 28.9817Z" fill="#4B5B19"/>
<path d="M15.377 26.8628C15.377 26.8628 16.4324 26.192 16.6529 25.9232L16.8724 25.6552L17.8929 26.5234C17.8929 26.5234 16.9611 27.1686 16.9406 27.1496C16.9201 27.1305 15.377 26.8628 15.377 26.8628Z" fill="#6B7B3E"/>
<path d="M15.377 26.8629C16.2479 27.3529 16.8182 27.9501 16.8182 27.9501L17.8929 26.5234L15.3777 26.8639L15.377 26.8629Z" fill="#4B5B19"/>
<path d="M16.209 23.7757C16.209 23.7757 17.4239 23.4778 17.7185 23.2936L18.0121 23.1101L18.7011 24.2581C18.7011 24.2581 17.6126 24.572 17.5986 24.547C17.5846 24.5221 16.209 23.7757 16.209 23.7757Z" fill="#6B7B3E"/>
<path d="M16.209 23.7757C16.8767 24.5181 17.2264 25.2672 17.2264 25.2672L18.7011 24.2581L16.209 23.7757Z" fill="#4B5B19"/>
<path d="M16.6836 21.5223C16.6836 21.5223 17.8985 21.2244 18.1931 21.0402L18.4867 20.8567L19.1757 22.0048C19.1757 22.0048 18.0872 22.3186 18.0732 22.2937C18.0592 22.2687 16.6836 21.5223 16.6836 21.5223Z" fill="#6B7B3E"/>
<path d="M16.6836 21.5223C17.3514 22.2648 17.701 23.0138 17.701 23.0138L19.1757 22.0048L16.6836 21.5223Z" fill="#4B5B19"/>
<path d="M13.7812 32.4175C13.7812 32.4175 14.6333 31.501 14.7777 31.1866L14.9232 30.8714L16.1293 31.4527C16.1293 31.4527 15.3915 32.3123 15.3663 32.2995C15.3411 32.2867 13.7812 32.4175 13.7812 32.4175Z" fill="#6B7B3E"/>
<path d="M13.7812 32.4175C14.7468 32.672 15.45 33.1052 15.45 33.1052L16.1293 31.4527L13.7812 32.4175Z" fill="#4B5B19"/>
<path d="M14.2809 33.8436C14.2809 33.8436 15.2567 33.0603 15.445 32.7685L15.634 32.4777L16.7438 33.2281C16.7438 33.2281 15.8897 33.972 15.8668 33.956C15.844 33.9401 14.2809 33.8436 14.2809 33.8436Z" fill="#6B7B3E"/>
<path d="M14.2812 33.8436C15.2004 34.2347 15.8333 34.7653 15.8333 34.7653L16.7442 33.2281L14.2812 33.8436Z" fill="#4B5B19"/>
<path d="M14.8015 35.9907C14.8015 35.9907 15.5697 35.0039 15.6861 34.677L15.8025 34.3501L17.055 34.8233C17.055 34.8233 16.3956 35.745 16.3701 35.7339C16.3445 35.7229 14.8015 35.9907 14.8015 35.9907Z" fill="#6B7B3E"/>
<path d="M14.8008 35.9907C15.7854 36.1586 16.5238 36.5289 16.5238 36.5289L17.0543 34.8232L14.8008 35.9907Z" fill="#4B5B19"/>
<path d="M15.6149 38.0359C15.6149 38.0359 16.1087 36.8863 16.1386 36.5404L16.1685 36.1944L17.4999 36.3363C17.4999 36.3363 17.095 37.3938 17.0671 37.3903C17.0392 37.3868 15.6142 38.0349 15.6142 38.0349L15.6149 38.0359Z" fill="#6B7B3E"/>
<path d="M15.6152 38.0359C16.6104 37.9506 17.418 38.1207 17.418 38.1207L17.5002 36.3363L15.6145 38.0349L15.6152 38.0359Z" fill="#4B5B19"/>
<path d="M16.3581 39.5985C16.3581 39.5985 17.0684 38.5685 17.1655 38.2353L17.2626 37.9021L18.5405 38.3024C18.5405 38.3024 17.9358 39.2605 17.9082 39.2508C17.8823 39.2414 16.3574 39.5974 16.3574 39.5974L16.3581 39.5985Z" fill="#6B7B3E"/>
<path d="M16.3574 39.5984C17.3501 39.71 18.1083 40.0367 18.1083 40.0367L18.5405 38.3034L16.3574 39.5984Z" fill="#4B5B19"/>
<path d="M17.3682 41.4686C17.3682 41.4686 17.8205 40.3023 17.8397 39.9561L17.8572 39.6096L19.193 39.705C19.193 39.705 18.8247 40.7766 18.7975 40.7741C18.7696 40.7706 17.3689 41.4697 17.3689 41.4697L17.3682 41.4686Z" fill="#6B7B3E"/>
<path d="M17.3672 41.4686C18.3593 41.348 19.1721 41.4905 19.1721 41.4905L19.1921 39.705L17.3672 41.4686Z" fill="#4B5B19"/>
<path d="M19.0111 43.2947C19.0111 43.2947 19.1548 42.052 19.0844 41.7129L19.0139 41.3739L20.3304 41.1282C20.3304 41.1282 20.2447 42.2579 20.2179 42.2626C20.1905 42.2663 19.0107 43.2965 19.0107 43.2965L19.0111 43.2947Z" fill="#6B7B3E"/>
<path d="M19.0105 43.2947C19.9396 42.9274 20.7619 42.8594 20.7619 42.8594L20.3302 41.1265L19.0105 43.2947Z" fill="#4B5B19"/>
<path d="M20.2587 44.1479C20.2587 44.1479 20.5799 42.9389 20.5599 42.5924L20.54 42.2459L21.878 42.1927C21.878 42.1927 21.6308 43.2988 21.6022 43.2988C21.5737 43.2987 20.2587 44.1479 20.2587 44.1479Z" fill="#6B7B3E"/>
<path d="M20.2578 44.148C21.2296 43.9181 22.0541 43.9701 22.0541 43.9701L21.8772 42.1927L20.2578 44.148Z" fill="#4B5B19"/>
<path d="M21.9507 45.5677C21.9507 45.5677 21.9843 44.3175 21.885 43.9845L21.7847 43.6522L23.074 43.2917C23.074 43.2917 23.0884 44.4251 23.0613 44.4316C23.0342 44.438 21.9497 45.5684 21.9497 45.5684L21.9507 45.5677Z" fill="#6B7B3E"/>
<path d="M21.951 45.5677C22.8435 45.1202 23.6573 44.98 23.6573 44.98L23.0743 43.2916L21.951 45.5677Z" fill="#4B5B19"/>
<path d="M24.0123 46.6295C24.0123 46.6295 23.7284 45.411 23.548 45.1153L23.3676 44.8196L24.5237 44.1446C24.5237 44.1446 24.8242 45.2377 24.7996 45.25C24.7746 45.264 24.0113 46.6302 24.0113 46.6302L24.0123 46.6295Z" fill="#6B7B3E"/>
<path d="M24.0127 46.6294C24.7641 45.9705 25.515 45.6301 25.515 45.6301L24.5241 44.1446L24.0117 46.6301L24.0127 46.6294Z" fill="#4B5B19"/>
<path d="M15.6232 32.6543C15.6232 32.6543 16.702 32.02 16.9298 31.7598L17.1587 31.4988L18.1486 32.4014C18.1486 32.4014 17.1962 33.0142 17.175 32.9941C17.1555 32.9743 15.6225 32.6533 15.6225 32.6533L15.6232 32.6543Z" fill="#6B7B3E"/>
<path d="M15.623 32.6543C16.4757 33.1748 17.0256 33.7904 17.0256 33.7904L18.1484 32.4014L15.623 32.6543Z" fill="#4B5B19"/>
<path d="M15.6037 31.4573C15.6037 31.4573 16.6825 30.8229 16.9103 30.5627L17.1392 30.3018L18.1291 31.2044C18.1291 31.2044 17.1766 31.8171 17.1555 31.797C17.136 31.7773 15.603 31.4562 15.603 31.4562L15.6037 31.4573Z" fill="#6B7B3E"/>
<path d="M15.6035 31.4573C16.4562 31.9777 17.006 32.5934 17.006 32.5934L18.1289 31.2044L15.6035 31.4573Z" fill="#4B5B19"/>
<path d="M15.8674 34.9933C15.8674 34.9933 16.9461 34.359 17.174 34.0988L17.4028 33.8379L18.3927 34.7404C18.3927 34.7404 17.4403 35.3532 17.4191 35.3331C17.3997 35.3134 15.8667 34.9923 15.8667 34.9923L15.8674 34.9933Z" fill="#6B7B3E"/>
<path d="M15.8672 34.9933C16.7198 35.5138 17.2697 36.1294 17.2697 36.1294L18.3925 34.7405L15.8672 34.9933Z" fill="#4B5B19"/>
<path d="M33.432 12.1C33.432 12.1 33.0405 13.3975 33.0487 13.773L33.0586 14.1488L31.6076 14.1574C31.6076 14.1574 31.916 12.9692 31.9452 12.9702C31.9755 12.9706 33.4302 12.0997 33.4302 12.0997L33.432 12.1Z" fill="#6B7B3E"/>
<path d="M33.4325 12.1C32.3712 12.3129 31.4816 12.2271 31.4816 12.2271L31.6089 14.1584L33.4325 12.1Z" fill="#4B5B19"/>
<path d="M35.0355 13.3242C35.0355 13.3242 34.644 14.6217 34.6522 14.9972L34.6621 15.373L33.2112 15.3816C33.2112 15.3816 33.5195 14.1933 33.5498 14.1937C33.58 14.1941 35.0348 13.3232 35.0348 13.3232L35.0355 13.3242Z" fill="#6B7B3E"/>
<path d="M35.036 13.3242C33.9747 13.537 33.0851 13.4513 33.0851 13.4513L33.2124 15.3826L35.036 13.3242Z" fill="#4B5B19"/>
<path d="M34.8551 15.3514C34.8551 15.3514 34.1582 16.5133 34.0752 16.8804L33.9932 17.2469L32.5845 16.9012C32.5845 16.9012 33.1742 15.8243 33.2029 15.8333C33.2325 15.8416 34.8558 15.3525 34.8558 15.3525L34.8551 15.3514Z" fill="#6B7B3E"/>
<path d="M34.8558 15.3514C33.7754 15.2982 32.9328 14.9974 32.9328 14.9974L32.5835 16.9008L34.8565 15.3524L34.8558 15.3514Z" fill="#4B5B19"/>
<path d="M33.4026 14.6547C33.4026 14.6547 33.0017 15.9495 33.0089 16.3257L33.0161 16.7019L31.5651 16.7016C31.5651 16.7016 31.881 15.5156 31.9113 15.516C31.9423 15.5174 33.4026 14.6547 33.4026 14.6547Z" fill="#6B7B3E"/>
<path d="M33.4018 14.6547C32.3391 14.861 31.4498 14.7691 31.4498 14.7691L31.5643 16.7015L33.4008 14.6554L33.4018 14.6547Z" fill="#4B5B19"/>
<path d="M31.5699 12.1509C31.5699 12.1509 31.196 13.4543 31.2108 13.8284L31.2252 14.2042L29.7748 14.2334C29.7748 14.2334 30.0659 13.0419 30.0972 13.0416C30.1274 13.042 31.571 12.1502 31.571 12.1502L31.5699 12.1509Z" fill="#6B7B3E"/>
<path d="M31.5692 12.1509C30.5111 12.3795 29.6203 12.3052 29.6203 12.3052L29.7747 14.2344L31.5699 12.1519L31.5692 12.1509Z" fill="#4B5B19"/>
<path d="M29.6419 9.71242C29.6419 9.71242 29.7661 11.0622 29.9167 11.4066L30.0674 11.7511L28.7271 12.3055C28.7271 12.3055 28.5661 11.0889 28.5931 11.078C28.6219 11.0674 29.6419 9.71242 29.6419 9.71242Z" fill="#6B7B3E"/>
<path d="M29.6428 9.71242C28.7397 10.3096 27.8821 10.5637 27.8821 10.5637L28.7263 12.3052L29.6428 9.71242Z" fill="#4B5B19"/>
<path d="M27.2534 9.42021C27.2534 9.42021 28.1195 10.4626 28.4375 10.663L28.756 10.8617L27.9633 12.0769C27.9633 12.0769 27.1422 11.1643 27.1594 11.1391C27.1767 11.1138 27.2534 9.42021 27.2534 9.42021Z" fill="#6B7B3E"/>
<path d="M27.254 9.42021C26.8461 10.4227 26.2832 11.1182 26.2832 11.1182L27.9639 12.0769L27.254 9.42021Z" fill="#4B5B19"/>
<path d="M26.1635 10.7091C26.1635 10.7091 27.0296 11.7515 27.3477 11.9519L27.6661 12.1506L26.8734 13.3658C26.8734 13.3658 26.0523 12.4532 26.0703 12.429C26.0876 12.4037 26.1642 10.7101 26.1642 10.7101L26.1635 10.7091Z" fill="#6B7B3E"/>
<path d="M26.1641 10.7091C25.7563 11.7116 25.1933 12.4071 25.1933 12.4071L26.874 13.3658L26.1641 10.7091Z" fill="#4B5B19"/>
<path d="M29.9236 11.7505C29.9236 11.7505 29.6359 13.0748 29.6747 13.4489L29.7146 13.8224L28.2692 13.9472C28.2692 13.9472 28.4814 12.7389 28.5113 12.7366C28.5419 12.7352 29.9226 11.7512 29.9226 11.7512L29.9236 11.7505Z" fill="#6B7B3E"/>
<path d="M29.9245 11.7505C28.884 12.0467 27.9899 12.0316 27.9899 12.0316L28.2711 13.9465L29.9255 11.7499L29.9245 11.7505Z" fill="#4B5B19"/>
<path d="M27.8237 11.5118C27.8237 11.5118 26.6004 12.8237 26.1987 12.6922C25.7961 12.5614 25.6424 11.8754 25.6424 11.8754C25.6424 11.8754 25.2415 12.7186 24.7374 12.897C24.2332 13.0754 24.0094 12.2886 24.0094 12.2886L23.932 12.6354C23.8546 12.9822 23.6748 13.4737 23.3805 13.5812C23.0868 13.6897 22.6486 12.9935 22.6486 12.9935C22.6486 12.9935 22.8628 13.7133 22.3283 14.3339C21.7946 14.9555 20.9539 14.0188 20.9539 14.0188C20.9539 14.0188 21.1498 14.5486 21.2755 14.9776C21.3662 15.2848 21.3325 15.5899 21.1865 15.7809C21.2174 15.6368 21.228 15.5665 21.2097 15.5925C21.1748 15.6448 21.1424 15.7404 21.1075 15.8632C21.0642 15.8987 21.015 15.9277 20.9594 15.9475C20.6311 16.0602 19.7278 15.5712 19.7278 15.5712C19.7278 15.5712 20.6496 17.1533 20.4222 17.5288C20.3784 17.5856 20.3332 17.6404 20.2849 17.6928C19.629 18.3841 18.2568 17.8365 18.2568 17.8365C18.2568 17.8365 19.5824 19.3266 19.0612 19.7642C18.54 20.2017 17.2508 20.3222 17.2508 20.3222C17.2508 20.3222 19.0363 21.3355 18.6462 21.9808C18.2568 22.6272 17.0902 22.9387 17.0902 22.9387C17.0902 22.9387 17.1881 22.9635 17.7823 23.3314C18.3038 23.6543 18.439 24.0709 18.3159 24.5268C17.7262 25.1191 16.4989 24.8988 16.4989 24.8988C16.4989 24.8988 18.0967 26.0925 17.6752 26.6257C17.2537 27.1588 16.0138 27.5368 16.0138 27.5368C16.0138 27.5368 17.9661 28.1694 17.7142 28.8811C17.4623 29.5928 16.3819 30.1322 16.3819 30.1322C16.3819 30.1322 16.4827 30.1371 17.1386 30.3774C17.4714 30.5004 17.683 30.6788 17.7983 30.8988C17.8017 30.994 17.7986 31.0997 17.7822 31.2143C17.7029 31.783 16.5151 31.6603 16.5151 31.6603C16.5151 31.6603 17.6306 32.3244 17.7062 32.9045C17.7818 33.4846 16.4159 33.7834 16.4159 33.7834C16.4159 33.7834 17.9426 34.3683 17.9194 34.8012C17.8952 35.2348 16.9221 36.2908 16.9727 36.3298C17.0233 36.3689 18.3952 36.2926 18.3952 36.2926L17.3856 37.6914L18.5366 37.4715L17.4774 39.5178L18.9643 39.2161L18.3437 41.3313L20.031 40.8196L19.9474 41.9568L20.5589 41.8103C20.5589 41.8103 22.4451 44.749 24.2377 44.8872C28.2179 45.1932 32.6557 42.0893 33.9874 34.4411C34.4122 32.0032 34.5446 27.1689 34.5401 26.1382C34.5276 23.4041 33.7351 19.6305 33.2668 18.4716C30.957 12.7593 28.4911 12.5245 28.0409 12.5927C27.5906 12.6608 27.8185 11.5108 27.8185 11.5108L27.8237 11.5118Z" fill="#FFE6C1"/>
<path d="M20.4209 21.2814C19.6325 23.6414 18.9893 29.0187 19.1272 31.1483C19.2643 33.2769 19.2862 35.7076 20.0703 37.3235C20.8544 38.9393 22.4565 41.1128 22.69 42.0085C22.9235 42.9042 23.962 44.8209 25.5342 44.3426C27.107 43.8653 27.7391 43.5863 30.048 40.7248C32.3557 37.864 33.3812 35.374 33.4648 32.858C33.5491 30.343 33.131 28.7689 33.1003 27.1424C33.0542 24.6188 31.8817 17.38 29.1552 14.3026C27.871 12.8533 23.6753 11.5329 20.4196 21.2794L20.4209 21.2814Z" fill="#F4C895"/>
<path d="M20.1407 30.1357C20.1407 30.1357 20.1017 35.3294 20.5494 36.6254C20.997 37.9213 22.4319 39.6115 22.8678 40.4099C23.3036 41.2083 23.7243 42.143 23.9086 42.7331C24.093 43.3231 24.8715 44.0937 25.7364 43.575C26.6014 43.0563 27.9112 41.3735 28.9791 40.0008C30.0478 38.6292 31.627 36.6173 31.9035 35.7523C32.18 34.8873 32.1815 33.524 32.3401 31.4595C32.4976 29.3957 32.3102 27.744 32.3553 27.2617C32.5519 25.1517 31.538 20.7382 31.538 20.7382L22.312 30.6536L20.1417 30.135L20.1407 30.1357Z" fill="#E77F40"/>
<path d="M24.6346 42.6825C24.8953 42.9265 25.2915 42.9552 25.5859 42.7531C26.5926 42.0659 26.4315 41.5605 29.6964 37.5916C31.218 35.7419 31.6336 32.9292 31.6251 31.3882C31.6159 29.8461 32.385 26.398 31.9079 22.396C31.4308 18.394 29.3793 14.9483 28.1951 14.2561C27.2873 13.7252 23.0463 13.4813 21.3892 19.5177C19.7322 25.5541 19.8753 29.3125 20.0939 32.2588C20.3125 35.2052 20.615 36.7815 22.659 39.2601C24.8909 41.9662 23.9937 42.0852 24.6336 42.6832L24.6346 42.6825Z" fill="#FFCA00"/>
<path d="M24.0137 15.7754C23.6542 16.1838 23.3542 16.6507 23.0941 17.128C22.0231 19.0863 21.5086 21.3287 21.6217 23.5322C21.6918 24.9083 22.1543 26.0696 22.7566 27.2842C23.2863 28.3502 24.831 28.3317 25.7832 27.8331C26.7313 27.3374 27.3251 26.3612 27.7615 25.3918C29.087 22.4545 29.7635 18.7319 28.2563 15.7946C27.8978 15.0966 27.3841 14.5493 26.5427 14.5013C25.9687 14.4692 25.3949 14.671 24.9093 14.9868C24.5724 15.2058 24.2759 15.4753 24.012 15.7751L24.0137 15.7754Z" fill="#FFDF82"/>
<path d="M20.9994 35.7238C20.9973 35.7823 21.002 35.8421 21.0132 35.9005C21.0719 36.2266 21.2445 36.5726 21.3888 36.8704C21.5683 37.2418 21.7803 37.597 22.0199 37.9334C22.8924 39.1635 23.9058 40.017 24.1294 40.7769C24.353 41.5369 24.616 42.2489 25.0961 42.1079C25.5744 41.9666 26.1471 40.7964 26.9746 39.6941C27.8021 38.5918 29.241 36.962 29.7297 35.9194C30.2173 34.8776 30.5553 32.5589 30.65 31.5042C30.7447 30.4494 30.9355 28.6855 31.0072 27.804C31.0796 26.9235 30.2751 27.0574 29.4985 30.1265C28.7219 33.1956 27.6506 35.1646 26.3117 36.4742C25.6806 37.0917 24.7999 37.3781 23.9259 37.3042C23.5806 37.2753 23.2328 37.1942 22.92 37.0412C22.4953 36.8339 22.2633 36.4428 21.966 36.0856C21.7836 35.8663 21.5992 35.6484 21.4113 35.4343C21.3578 35.3732 21.2866 35.3062 21.2076 35.3225C21.1603 35.3322 21.1245 35.3701 21.0974 35.4095C21.0354 35.5013 21.0066 35.611 21.0022 35.7235L20.9994 35.7238Z" fill="#FFB41A"/>
<path d="M20.9518 32.4439C20.8192 32.3947 20.6736 32.4804 20.6516 32.6199C20.6205 32.8166 20.674 33.1088 21.0993 33.4027C21.8411 33.9147 23.4518 34.3343 23.8549 34.0627C24.2591 33.7904 23.8644 33.5371 23.1723 33.4219C22.4809 33.3078 21.9671 33.1657 21.6588 32.9466C21.3505 32.7275 21.1026 32.5002 20.9552 32.4446C20.9545 32.4436 20.9528 32.4432 20.9511 32.4429L20.9518 32.4439Z" fill="#FFB41A"/>
<path d="M21.2401 34.2567C21.3998 34.4074 22.6515 35.0116 22.9883 35.0523C23.3261 35.0922 23.197 35.2222 23.0561 35.2597C22.9151 35.2972 22.1569 35.0035 21.6413 34.6915C21.1257 34.3796 20.9204 34.2809 20.9717 34.2129C21.023 34.145 21.2401 34.2567 21.2401 34.2567Z" fill="#FFB41A"/>
<path d="M27.0907 31.8606C27.8188 32.1013 29.4405 32.2134 30.1603 31.9001C30.8791 31.5876 31.1637 29.8798 30.6687 29.9439C30.1727 30.0087 29.3191 30.9053 28.4178 30.9566C27.5166 31.0079 26.9576 31.0705 26.8025 31.3472C26.6474 31.6239 26.9513 31.8145 27.0907 31.8606Z" fill="#FFB41A"/>
<path d="M20.8031 27.9347C20.8031 27.9347 20.7914 30.0342 20.8952 30.7482C20.9989 31.4622 22.042 32.3811 22.9098 32.4591C23.7776 32.5371 25.4584 31.6368 25.7727 30.2944C26.0881 28.9513 25.0136 28.9046 23.7707 28.7759C22.5278 28.6473 21.9232 26.8147 21.3883 26.807C20.8534 26.7993 20.8014 27.9344 20.8014 27.9344L20.8031 27.9347Z" fill="#FFDF82"/>
</svg>
