<svg width="95" height="21" viewBox="0 0 95 21" fill="none" xmlns="http://www.w3.org/2000/svg">
<path d="M3.2737 15.4981C3.03904 15.4981 2.80437 15.4021 2.5697 15.2101C2.3457 15.0288 2.14837 14.7248 1.9777 14.2981C1.80704 13.8715 1.6897 13.3061 1.6257 12.6021C1.57237 12.1755 1.4657 11.8395 1.3057 11.5941C1.16704 11.4021 1.0977 11.1995 1.0977 10.9861C1.0977 10.8261 1.1617 10.6395 1.2897 10.4261C1.3537 10.3301 1.39637 10.2288 1.4177 10.1221C1.4497 10.0155 1.4657 9.8288 1.4657 9.56213L1.4177 7.19413C1.4177 6.8848 1.3217 6.60213 1.1297 6.34613C0.91637 6.04746 0.809703 5.77546 0.809703 5.53013C0.809703 5.33813 0.85237 5.16213 0.937703 5.00213C1.02304 4.84213 1.11904 4.68746 1.2257 4.53813C1.33237 4.3888 1.4177 4.2448 1.4817 4.10613C1.56704 3.90346 1.71637 3.73813 1.9297 3.61013C2.14304 3.48213 2.3617 3.41813 2.5857 3.41813C2.75637 3.41813 2.91637 3.4608 3.0657 3.54613C3.21504 3.6208 3.4817 3.65813 3.8657 3.65813C4.26037 3.65813 4.73504 3.6368 5.2897 3.59413C5.95104 3.5408 6.60704 3.51413 7.2577 3.51413C7.6737 3.51413 8.06304 3.53546 8.4257 3.57813C8.78837 3.6208 9.0977 3.7008 9.3537 3.81813C9.62037 3.9248 9.8177 4.07413 9.9457 4.26613C10.0737 4.44746 10.1377 4.6288 10.1377 4.81013C10.1377 5.05546 10.0417 5.27413 9.8497 5.46613C9.6577 5.64746 9.3857 5.73813 9.0337 5.73813L8.7617 5.72213C8.33504 5.6688 7.90304 5.64213 7.4657 5.64213C6.58037 5.64213 5.69504 5.71146 4.8097 5.85013H4.7937C4.49504 5.87146 4.30304 5.91946 4.2177 5.99413C4.13237 6.05813 4.0897 6.2448 4.0897 6.55413L4.1057 7.67413H4.1697C4.1697 7.95146 4.16437 8.19146 4.1537 8.39413V8.76213C4.1537 9.01813 4.17504 9.1888 4.2177 9.27413C4.26037 9.3488 4.35104 9.38613 4.4897 9.38613C4.59637 9.38613 4.71904 9.37546 4.8577 9.35413C5.00704 9.3328 5.17237 9.3168 5.3537 9.30613L6.1057 9.24213C6.66037 9.1888 7.08704 9.16213 7.3857 9.16213C7.74837 9.16213 8.0417 9.23146 8.2657 9.37013C8.62837 9.62613 8.8097 9.9088 8.8097 10.2181C8.8097 10.4848 8.68704 10.7301 8.4417 10.9541C8.20704 11.1781 7.8657 11.3221 7.4177 11.3861L6.1537 11.5301C5.36437 11.5941 4.83104 11.6688 4.5537 11.7541C4.27637 11.8395 4.1377 12.0315 4.1377 12.3301C4.1377 12.5115 4.1697 12.7621 4.2337 13.0821C4.3297 13.6261 4.3777 13.9835 4.3777 14.1541C4.3777 14.5381 4.2657 14.8581 4.0417 15.1141C3.8177 15.3701 3.5617 15.4981 3.2737 15.4981ZM24.5883 15.5141C24.055 15.5141 23.5483 15.3915 23.0683 15.1461C22.5883 14.9008 22.1777 14.5168 21.8363 13.9941C21.3243 13.1835 21.0683 12.1648 21.0683 10.9381C21.0683 10.3621 21.111 9.77546 21.1963 9.17813C21.2817 8.57013 21.3777 7.9728 21.4843 7.38613C21.5803 6.86346 21.6657 6.36213 21.7403 5.88213C21.815 5.39146 21.8523 4.93813 21.8523 4.52213V4.41013C21.8417 4.11146 21.6283 3.96213 21.2123 3.96213C20.679 3.96213 19.975 4.15946 19.1003 4.55413C18.2363 4.9488 17.5377 5.35413 17.0043 5.77013C16.6737 6.01546 16.5083 6.22346 16.5083 6.39413C16.5083 6.47946 16.5563 6.5808 16.6523 6.69813C16.759 6.8048 16.903 6.93813 17.0843 7.09813C17.3723 7.34346 17.751 7.72213 18.2203 8.23413C18.9243 9.02346 19.2763 9.8608 19.2763 10.7461C19.2763 11.7275 18.9083 12.5915 18.1723 13.3381C17.2123 14.3088 16.0603 14.7941 14.7163 14.7941C13.8203 14.7941 13.1003 14.5648 12.5563 14.1061C12.0123 13.6368 11.6177 13.0288 11.3723 12.2821C11.127 11.5355 11.0043 10.7515 11.0043 9.93013C11.0043 9.0448 11.1217 8.19146 11.3563 7.37013C11.591 6.53813 11.911 5.85546 12.3163 5.32213C12.7217 4.7888 13.1697 4.52213 13.6603 4.52213C13.799 4.52213 13.9377 4.54346 14.0763 4.58613H14.0923C14.2097 4.58613 14.4923 4.41546 14.9403 4.07413C15.3457 3.7648 15.863 3.4128 16.4923 3.01813C17.1323 2.6128 17.847 2.2608 18.6363 1.96213C19.4363 1.6528 20.279 1.49813 21.1643 1.49813C21.463 1.49813 21.767 1.51946 22.0763 1.56213C22.8123 1.69013 23.3457 1.93546 23.6763 2.29813C24.0177 2.65013 24.2363 3.05013 24.3323 3.49813C24.439 3.94613 24.4977 4.3728 24.5083 4.77813C24.5297 5.08746 24.5617 5.34346 24.6043 5.54613C24.6577 5.7488 24.759 5.86613 24.9083 5.89813C25.6977 6.0368 26.455 6.31946 27.1803 6.74613C27.9057 7.1728 28.5083 7.71146 28.9883 8.36213C29.4683 9.00213 29.7083 9.70613 29.7083 10.4741C29.7083 10.8261 29.6497 11.1835 29.5323 11.5461C29.095 12.7515 28.407 13.7115 27.4683 14.4261C26.5297 15.1515 25.5697 15.5141 24.5883 15.5141ZM15.0843 11.8181C15.3937 11.8181 15.6763 11.6955 15.9323 11.4501C16.199 11.1941 16.3323 10.9168 16.3323 10.6181C16.3323 10.4901 16.3003 10.3621 16.2363 10.2341C16.119 10.0528 15.8097 9.69546 15.3083 9.16213C14.7003 8.52213 14.295 8.20213 14.0923 8.20213C13.943 8.20213 13.8683 8.63946 13.8683 9.51413C13.8683 10.3781 13.991 10.9808 14.2363 11.3221C14.4923 11.6528 14.775 11.8181 15.0843 11.8181ZM24.8603 12.5701C25.2657 12.5701 25.6763 12.3355 26.0923 11.8661C26.5083 11.3861 26.7163 10.9168 26.7163 10.4581C26.7163 10.2021 26.631 9.97813 26.4603 9.78613C25.8737 9.1568 25.1323 8.6928 24.2363 8.39413C24.0443 9.37546 23.9483 10.1701 23.9483 10.7781C23.9483 11.4395 24.039 11.9035 24.2203 12.1701C24.4017 12.4368 24.615 12.5701 24.8603 12.5701ZM40.4043 15.3381C40.0523 15.3381 39.7323 15.1835 39.4443 14.8741C39.1989 14.5541 39.0283 14.2128 38.9323 13.8501C38.8469 13.4768 38.7883 13.0768 38.7563 12.6501C38.7243 12.2128 38.6549 11.7435 38.5483 11.2421C38.4096 11.2635 38.2656 11.4181 38.1163 11.7061C37.9883 12.0368 37.6256 12.5701 37.0283 13.3061C36.0256 14.4475 35.0176 15.0181 34.0043 15.0181C33.1296 15.0181 32.3989 14.6448 31.8123 13.8981C31.2256 13.1408 30.9323 12.2555 30.9323 11.2421C30.9323 10.6021 31.0709 9.95146 31.3483 9.29013C31.9563 7.83946 33.2203 6.7088 35.1403 5.89813C35.8549 5.6208 36.4576 5.48213 36.9483 5.48213C37.0123 5.48213 37.0709 5.48746 37.1243 5.49813H37.2683C37.4069 5.49813 37.5136 5.46613 37.5883 5.40213C37.6629 5.32746 37.7216 5.16746 37.7643 4.92213C37.8176 4.66613 37.8763 4.27146 37.9403 3.73813C38.0043 3.2048 38.1056 2.4848 38.2443 1.57813C38.3296 1.0768 38.4949 0.708797 38.7403 0.47413C38.9963 0.228797 39.2789 0.106131 39.5883 0.106131C39.8656 0.106131 40.1323 0.196797 40.3883 0.37813C40.8149 0.740797 41.0763 1.53546 41.1723 2.76213C41.2469 3.7648 41.2843 4.9008 41.2843 6.17013V7.03413C41.2843 8.17546 41.3003 9.3168 41.3323 10.4581C41.3749 11.5995 41.4709 12.6661 41.6203 13.6581C41.6416 13.7755 41.6523 13.8875 41.6523 13.9941C41.6523 14.4315 41.5243 14.7621 41.2683 14.9861C41.0123 15.2208 40.7243 15.3381 40.4043 15.3381ZM34.1003 12.4101C34.6549 12.4101 35.3003 11.7381 36.0363 10.3941C36.3029 9.90346 36.5429 9.4128 36.7563 8.92213C36.9696 8.4208 37.0763 8.04746 37.0763 7.80213C37.0763 7.6528 37.0229 7.57813 36.9163 7.57813L36.8043 7.59413C36.0043 7.91413 35.3589 8.30346 34.8683 8.76213C34.3883 9.2208 34.0363 9.69546 33.8123 10.1861C33.5989 10.6768 33.4923 11.1088 33.4923 11.4821C33.4923 11.7595 33.5456 11.9835 33.6523 12.1541C33.7589 12.3248 33.9083 12.4101 34.1003 12.4101ZM47.531 15.5781C46.8377 15.5781 46.3843 14.9168 46.171 13.5941C46.0217 12.7195 45.9417 11.3915 45.931 9.61013C45.931 8.65013 45.899 7.83413 45.835 7.16213C45.7817 6.49013 45.6217 6.15413 45.355 6.15413C44.8003 6.1968 44.3203 6.2768 43.915 6.39413C43.5843 6.5008 43.291 6.55413 43.035 6.55413C42.8217 6.55413 42.635 6.5008 42.475 6.39413C42.315 6.2768 42.1657 6.0688 42.027 5.77013C41.931 5.5568 41.883 5.3648 41.883 5.19413C41.883 4.7568 42.1497 4.42613 42.683 4.20213C43.2057 3.97813 43.883 3.81813 44.715 3.72213C45.547 3.61546 46.4483 3.53013 47.419 3.46613C48.9017 3.3808 50.2723 3.2208 51.531 2.98613C51.6483 2.9648 51.7657 2.95413 51.883 2.95413C52.2457 2.95413 52.539 3.0608 52.763 3.27413C52.9977 3.4768 53.115 3.71146 53.115 3.97813C53.115 4.25546 52.971 4.52746 52.683 4.79413C52.4057 5.05013 51.9363 5.24213 51.275 5.37013C50.4857 5.5088 49.8617 5.59413 49.403 5.62613C48.955 5.65813 48.6457 5.71146 48.475 5.78613C48.3043 5.8608 48.219 6.0528 48.219 6.36213C48.219 6.58613 48.2457 6.89546 48.299 7.29013C48.4057 7.98346 48.4857 9.10346 48.539 10.6501C48.5603 11.4928 48.5923 12.2021 48.635 12.7781C48.6777 13.2901 48.699 13.7221 48.699 14.0741C48.699 14.5008 48.6457 14.8261 48.539 15.0501C48.4323 15.2741 48.2297 15.4288 47.931 15.5141C47.7923 15.5568 47.659 15.5781 47.531 15.5781ZM54.899 15.2901C54.035 15.2901 53.5017 14.9328 53.299 14.2181C53.1603 13.7488 53.091 13.2208 53.091 12.6341C53.091 12.1648 53.107 11.6848 53.139 11.1941C53.171 10.7461 53.187 10.3408 53.187 9.97813C53.187 9.59413 53.155 9.27413 53.091 9.01813C52.9417 8.47413 52.867 7.91946 52.867 7.35413V6.61813C52.867 6.33013 52.963 6.07946 53.155 5.86613C53.3577 5.6528 53.603 5.54613 53.891 5.54613C54.1257 5.54613 54.3763 5.64213 54.643 5.83413C54.9097 6.01546 55.0963 6.2608 55.203 6.57013C55.2457 6.69813 55.2937 6.76213 55.347 6.76213C55.4323 6.76213 55.619 6.65013 55.907 6.42613C56.6217 5.88213 57.315 5.4928 57.987 5.25813C58.659 5.02346 59.2723 4.90613 59.827 4.90613C60.5097 4.90613 61.059 5.05013 61.475 5.33813C61.9017 5.61546 62.115 5.9568 62.115 6.36213C62.115 6.51146 62.083 6.66613 62.019 6.82613C61.9017 7.0928 61.763 7.27413 61.603 7.37013C61.443 7.46613 61.267 7.51413 61.075 7.51413C60.915 7.51413 60.739 7.49813 60.547 7.46613C60.355 7.42346 60.1577 7.40213 59.955 7.40213C59.7737 7.40213 59.587 7.43413 59.395 7.49813C58.3497 7.91413 57.587 8.44213 57.107 9.08213C56.6377 9.72213 56.3337 10.3995 56.195 11.1141C56.067 11.8181 55.9977 12.4848 55.987 13.1141C55.9657 13.5301 55.9283 13.9035 55.875 14.2341C55.8323 14.5648 55.7363 14.8208 55.587 15.0021C55.4483 15.1941 55.219 15.2901 54.899 15.2901ZM66.3468 15.2261C65.5575 15.2261 64.9068 15.0075 64.3948 14.5701C63.8828 14.1435 63.4988 13.5781 63.2428 12.8741C62.9975 12.1701 62.8748 11.4181 62.8748 10.6181C62.8748 9.42346 63.1362 8.27146 63.6588 7.16213C64.1922 6.0528 64.9708 5.26346 65.9948 4.79413C66.3148 4.66613 66.5868 4.60213 66.8108 4.60213C67.0668 4.60213 67.2748 4.65546 67.4348 4.76213C67.6055 4.85813 67.7602 4.9648 67.8988 5.08213C68.0802 5.2528 68.2668 5.3648 68.4588 5.41813C69.3335 5.64213 69.9948 6.21813 70.4428 7.14613C70.8908 8.07413 71.1308 9.03413 71.1628 10.0261C70.9495 11.6581 70.3788 12.9115 69.4508 13.7861C68.4482 14.7461 67.4135 15.2261 66.3468 15.2261ZM66.3788 12.2821C66.4855 12.2821 66.6028 12.2501 66.7308 12.1861C67.1255 11.9621 67.4402 11.6315 67.6748 11.1941C67.9202 10.7461 68.0428 10.2821 68.0428 9.80213L68.0268 9.48213C67.9735 9.02346 67.8455 8.6128 67.6428 8.25013C67.4508 7.88746 67.1255 7.4608 66.6668 6.97013C66.3255 7.2048 66.0588 7.65813 65.8668 8.33013C65.6855 9.00213 65.5948 9.67946 65.5948 10.3621C65.5948 10.8848 65.6535 11.3381 65.7708 11.7221C65.8988 12.0955 66.1015 12.2821 66.3788 12.2821ZM76.6451 16.6021C75.8664 16.6021 75.1997 16.0208 74.6451 14.8581C74.2824 14.0795 73.8877 12.9008 73.4611 11.3221C73.2477 10.4688 73.0291 9.74346 72.8051 9.14613C72.5491 8.44213 72.4211 7.8768 72.4211 7.45013C72.4211 7.02346 72.5171 6.71413 72.7091 6.52213C72.9011 6.33013 73.1251 6.23413 73.3811 6.23413C73.6477 6.23413 73.9144 6.3248 74.1811 6.50613C74.4477 6.68746 74.6451 6.92746 74.7731 7.22613C75.3491 8.7088 75.7704 9.93013 76.0371 10.8901C76.1971 11.4341 76.3304 11.8608 76.4371 12.1701C76.5544 12.4688 76.6771 12.6181 76.8051 12.6181C76.9864 12.6181 77.2317 12.2181 77.5411 11.4181C77.7864 10.8101 78.3091 9.33813 79.1091 7.00213C79.3331 6.39413 79.5944 5.9568 79.8931 5.69013C80.1917 5.4128 80.4851 5.27413 80.7731 5.27413C81.0611 5.27413 81.3064 5.39146 81.5091 5.62613C81.7117 5.85013 81.8131 6.15413 81.8131 6.53813C81.8131 6.71946 81.7811 6.9168 81.7171 7.13013C81.3331 8.4848 80.9171 9.81813 80.4691 11.1301C80.0317 12.4315 79.5624 13.5568 79.0611 14.5061C78.5704 15.4661 78.0584 16.0901 77.5251 16.3781C77.2051 16.5275 76.9117 16.6021 76.6451 16.6021ZM88.4215 15.3541H87.9735C86.7468 15.3541 85.7495 15.1141 84.9815 14.6341C84.2241 14.1541 83.6641 13.5301 83.3015 12.7621C82.9495 11.9835 82.7735 11.1515 82.7735 10.2661C82.7735 9.4768 82.9015 8.68746 83.1575 7.89813C83.4241 7.1088 83.7921 6.39413 84.2615 5.75413C84.7415 5.10346 85.3121 4.58613 85.9735 4.20213C86.6455 3.80746 87.3868 3.61013 88.1975 3.61013C88.4428 3.61013 88.6988 3.63146 88.9655 3.67413C89.9255 3.8448 90.6135 4.1968 91.0295 4.73013C91.4561 5.2528 91.6695 5.83413 91.6695 6.47413C91.6695 7.0928 91.5095 7.7008 91.1895 8.29813C90.8695 8.89546 90.4375 9.39146 89.8935 9.78613C89.3495 10.1808 88.7415 10.3781 88.0695 10.3781C87.5255 10.3781 86.9548 10.2128 86.3575 9.88213C86.3148 9.8608 86.2668 9.83413 86.2135 9.80213C86.1708 9.77013 86.1228 9.74346 86.0695 9.72213C86.0268 9.69013 85.9841 9.67413 85.9415 9.67413C85.8561 9.67413 85.8135 9.83946 85.8135 10.1701C85.8135 10.8208 86.0588 11.3595 86.5495 11.7861C87.0508 12.2128 87.6748 12.4261 88.4215 12.4261C89.1575 12.4261 89.8988 12.2128 90.6455 11.7861C90.8268 11.6901 91.0028 11.6048 91.1735 11.5301C91.3548 11.4555 91.5628 11.4181 91.7975 11.4181L92.0055 11.4341C92.4001 11.4768 92.6935 11.5941 92.8855 11.7861C93.0775 11.9675 93.1735 12.1861 93.1735 12.4421C93.1735 12.8261 92.9761 13.2475 92.5815 13.7061C92.1975 14.1648 91.6481 14.5541 90.9335 14.8741C90.2188 15.1941 89.3815 15.3541 88.4215 15.3541ZM88.0375 8.12213C88.1015 8.12213 88.1868 8.09546 88.2935 8.04213C88.6135 7.88213 88.8481 7.69546 88.9975 7.48213C89.1468 7.2688 89.2215 7.0608 89.2215 6.85813C89.2215 6.65546 89.1575 6.4848 89.0295 6.34613C88.9015 6.1968 88.7148 6.12213 88.4695 6.12213C88.1068 6.12213 87.7121 6.2928 87.2855 6.63413C86.8695 6.97546 86.6615 7.2368 86.6615 7.41813C86.6615 7.50346 86.7201 7.55146 86.8375 7.56213C87.2001 7.59413 87.4881 7.7168 87.7015 7.93013C87.8188 8.05813 87.9308 8.12213 88.0375 8.12213Z" fill="black"/>
</svg>
