<svg width="15" height="14" viewBox="0 0 15 14" fill="none" xmlns="http://www.w3.org/2000/svg">
<g clip-path="url(#clip0_8341_8565)">
<path d="M9.6262 9.6017L12.1229 12.0984L11.2945 12.9267L8.79786 10.43C8.33898 10.7956 7.83731 11.0756 7.29286 11.27C6.71731 11.4723 6.1262 11.5734 5.51953 11.5734C4.57064 11.5734 3.68786 11.3361 2.8712 10.8617C2.07786 10.395 1.45175 9.76503 0.992865 8.9717C0.510642 8.15503 0.269531 7.27225 0.269531 6.32336C0.269531 5.37447 0.510642 4.4917 0.992865 3.67503C1.45175 2.8817 2.07786 2.25559 2.8712 1.7967C3.68786 1.31447 4.57064 1.07336 5.51953 1.07336C6.46842 1.07336 7.3512 1.31447 8.16786 1.7967C8.9612 2.25559 9.5912 2.8817 10.0579 3.67503C10.5323 4.4917 10.7695 5.37447 10.7695 6.32336C10.7695 6.93003 10.6684 7.52114 10.4662 8.0967C10.2718 8.64114 9.99175 9.14281 9.6262 9.6017ZM8.44786 9.17003C8.81342 8.7967 9.09731 8.36892 9.29953 7.8867C9.50175 7.38892 9.60286 6.86781 9.60286 6.32336C9.60286 5.58447 9.4162 4.89614 9.04286 4.25836C8.68509 3.64392 8.19898 3.15781 7.58453 2.80003C6.94675 2.4267 6.25842 2.24003 5.51953 2.24003C4.78064 2.24003 4.09231 2.4267 3.45453 2.80003C2.84009 3.15781 2.35398 3.64392 1.9962 4.25836C1.62286 4.89614 1.4362 5.58447 1.4362 6.32336C1.4362 7.06225 1.62286 7.75059 1.9962 8.38836C2.35398 9.00281 2.84009 9.48892 3.45453 9.8467C4.09231 10.22 4.78064 10.4067 5.51953 10.4067C6.06398 10.4067 6.58509 10.3056 7.08286 10.1034C7.56509 9.90114 7.99286 9.61725 8.3662 9.2517L8.44786 9.17003Z" fill="white"/>
</g>
<defs>
<clipPath id="clip0_8341_8565">
<rect width="14.48" height="14" fill="white" transform="matrix(1 0 0 -1 0.269531 14)"/>
</clipPath>
</defs>
</svg>
